<svg width="80" height="80" viewBox="0 0 80 80" fill="none" xmlns="http://www.w3.org/2000/svg">
<g clip-path="url(#clip0_2158_5535)">
<path d="M80 0H0V80H80V0Z" fill="url(#paint0_linear_2158_5535)"/>
<path opacity="0.5" d="M79.01 0H1V78H79.01V0Z" fill="black"/>
<path opacity="0.48" d="M1.16992 0.314542L5.86737 0.22998H74.1025C74.1025 0.22998 78.7999 0.229984 78.7999 0.314542V77.816L74.1025 77.91H5.89552C5.83915 77.91 1.19808 77.863 1.19808 77.816L1.16992 0.314542Z" fill="#010101"/>
<path opacity="0.47" d="M1.32759 0.637811C1.32759 0.534486 5.87397 0.449951 6.02427 0.449951H74.0133C74.1073 0.449951 78.71 0.534486 78.71 0.637811V77.6615C78.71 77.7554 74.1543 77.84 74.0133 77.84H5.98671C5.88339 77.84 1.29004 77.7554 1.29004 77.6615L1.32759 0.637811Z" fill="#020202"/>
<path opacity="0.45" d="M1.49023 0.952249C3.01202 0.782193 4.54155 0.691303 6.07277 0.679932H73.9288C75.4663 0.69131 77.0021 0.7822 78.5302 0.952249V77.4376C77.0053 77.6077 75.4726 77.6986 73.9382 77.7099H6.08217C4.54783 77.6986 3.01516 77.6077 1.49023 77.4376V0.952249Z" fill="#020303"/>
<path opacity="0.44" d="M1.65039 1.26666C1.65039 1.06951 5.96895 0.909912 6.17549 0.909912H73.8359C74.0331 0.909912 78.3704 1.06951 78.3704 1.26666V77.2538C78.3704 77.4509 74.0425 77.6199 73.8453 77.6199H6.18489C5.97835 77.6199 1.65039 77.4509 1.65039 77.2538V1.26666Z" fill="#030304"/>
<path opacity="0.42" d="M1.81055 1.59002C1.81055 1.33661 6.02471 1.13013 6.26874 1.13013H73.7424C73.9864 1.13013 78.2006 1.33661 78.2006 1.59002V77.0602C78.2006 77.3136 73.9958 77.5201 73.7424 77.5201H6.27814C6.02472 77.5201 1.81055 77.3136 1.81055 77.0602V1.59002Z" fill="#040405"/>
<path opacity="0.4" d="M1.9707 1.90433C1.9707 1.60406 6.07119 1.36011 6.37145 1.36011H73.64C73.9402 1.36011 78.0407 1.60406 78.0407 1.90433V76.8759C78.0407 77.1761 73.9496 77.4201 73.6494 77.4201H6.41835C6.11809 77.4201 2.01761 77.1761 2.01761 76.8759L1.9707 1.90433Z" fill="#050506"/>
<path opacity="0.39" d="M2.12988 2.21797C2.12988 1.87088 6.11672 1.58008 6.46381 1.58008H73.546C73.893 1.58008 77.8799 1.87088 77.8799 2.21797V76.6916C77.8799 77.0387 73.9024 77.3201 73.5553 77.3201H6.4732C6.11673 77.3201 2.12988 77.0387 2.12988 76.6916V2.21797Z" fill="#060607"/>
<path opacity="0.37" d="M2.30078 2.53218C2.30078 2.13829 6.16461 1.81006 6.55849 1.81006H73.4443C73.8475 1.81006 77.7208 2.13829 77.7208 2.53218V76.4986C77.7208 76.9018 73.8569 77.2301 73.4537 77.2301H6.56788C6.16461 77.2301 2.30078 76.9018 2.30078 76.4986V2.53218Z" fill="#060708"/>
<path opacity="0.35" d="M2.45996 2.8551C2.45996 2.39568 6.21025 2.03003 6.66029 2.03003H73.3502C73.8003 2.03003 77.5599 2.39568 77.5599 2.8551V76.3143C77.5599 76.7644 73.8096 77.13 73.3596 77.13H6.66968C6.21026 77.13 2.45996 76.7644 2.45996 76.3143V2.8551Z" fill="#070809"/>
<path opacity="0.34" d="M2.62012 3.16736C2.62012 2.66117 6.25698 2.22998 6.75376 2.22998H73.2572C73.754 2.22998 77.4001 2.63305 77.4001 3.16736V76.1326C77.4001 76.6294 73.7633 77.07 73.2572 77.07H6.76315C6.25699 77.07 2.62012 76.6669 2.62012 76.1326V3.16736Z" fill="#08080A"/>
<path opacity="0.32" d="M2.78027 3.48328C2.78027 2.93041 6.30365 2.48999 6.85653 2.48999H73.1546C73.7075 2.48999 77.2403 2.93041 77.2403 3.48328V75.9373C77.2403 76.4902 73.7169 76.94 73.164 76.94H6.85653C6.30365 76.94 2.78027 76.4902 2.78027 75.9373V3.48328Z" fill="#09090B"/>
<path opacity="0.31" d="M2.94043 3.79666C2.94043 3.1971 6.35049 2.70996 6.95005 2.70996H73.0615C73.6611 2.70996 77.0804 3.1971 77.0804 3.79666V75.7533C77.0804 76.3528 73.6704 76.84 73.0709 76.84H6.95943C6.35986 76.84 2.94043 76.3528 2.94043 75.7533V3.79666Z" fill="#0A0A0C"/>
<path opacity="0.29" d="M3.10059 4.11999C3.10059 3.46441 6.39726 2.93994 7.04349 2.93994H72.9776C73.6239 2.93994 76.9206 3.46441 76.9206 4.11999V75.5693C76.9206 76.2155 73.6332 76.7399 72.9776 76.7399H7.05286C6.40663 76.7399 3.10059 76.2155 3.10059 75.5693V4.11999Z" fill="#0A0B0D"/>
<path opacity="0.27" d="M3.26074 4.43328C3.26074 3.73105 6.44418 3.15991 7.1464 3.15991H72.8651C73.5674 3.15991 76.7507 3.73105 76.7507 4.43328V75.3765C76.7507 76.0788 73.5767 76.6499 72.8745 76.6499H7.1464C6.45354 76.6499 3.26074 76.0788 3.26074 75.3765V4.43328Z" fill="#0B0C0E"/>
<path opacity="0.26" d="M3.41953 4.74741C3.41953 3.99857 6.48969 3.39014 7.23851 3.39014H72.7611C73.5099 3.39014 76.5801 3.99857 76.5801 4.74741V75.2229C76.5801 75.9717 73.5193 76.5801 72.7611 76.5801H7.23851C6.48969 76.5801 3.41016 75.9717 3.41016 75.2229L3.41953 4.74741Z" fill="#0C0D0F"/>
<path opacity="0.24" d="M3.58984 5.03116C3.58984 4.23576 6.53745 3.59009 7.33284 3.59009H72.6669C73.4622 3.59009 76.4099 4.23576 76.4099 5.03116V74.979C76.4099 75.7744 73.4622 76.4201 72.6669 76.4201H7.34221C6.54682 76.4201 3.59921 75.7744 3.59921 74.979L3.58984 5.03116Z" fill="#0D0D0F"/>
<path opacity="0.23" d="M3.70996 5.38367C3.70996 4.53236 6.51646 3.84009 7.39584 3.84009H72.5347C73.386 3.84009 76.23 4.53236 76.23 5.38367V74.8165C76.23 75.6678 73.4235 76.3601 72.5441 76.3601H7.45196C6.61001 76.3601 3.76609 75.6678 3.76609 74.8165L3.70996 5.38367Z" fill="#0E0E10"/>
<path opacity="0.21" d="M3.91016 5.69736C3.91016 4.76213 6.63168 4.07007 7.5295 4.07007H72.4815C73.4167 4.07007 76.1102 4.79954 76.1102 5.69736V74.6328C76.1102 75.568 73.3793 76.2601 72.4815 76.2601H7.53887C6.60363 76.2601 3.91016 75.5306 3.91016 74.6328V5.69736Z" fill="#0F0F11"/>
<path opacity="0.19" d="M4.07031 6.01035C4.07031 5.0754 6.67886 4.29004 7.63252 4.29004H72.3787C73.3137 4.29004 75.9503 5.06605 75.9503 6.01035V74.4397C75.9503 75.3747 73.3324 76.16 72.3881 76.16H7.63252C6.69756 76.16 4.07031 75.3934 4.07031 74.4397V6.01035Z" fill="#0F1012"/>
<path opacity="0.18" d="M4.23047 6.32396C4.23047 5.32385 6.72609 4.52002 7.72621 4.52002H72.2854C73.2855 4.52002 75.7905 5.32385 75.7905 6.32396V74.2567C75.7905 75.2568 73.2855 76.07 72.2854 76.07H7.73556C6.73544 76.07 4.23047 75.2568 4.23047 74.2567V6.32396Z" fill="#101113"/>
<path opacity="0.16" d="M7.82007 4.73999H72.1821C73.094 4.73999 73.9686 5.10227 74.6134 5.74714C75.2583 6.392 75.6206 7.26663 75.6206 8.17861V72.5407C75.6206 73.4502 75.2593 74.3225 74.6162 74.9656C73.9731 75.6087 73.1009 75.97 72.1914 75.97H7.8292C6.91722 75.97 6.04269 75.6077 5.39782 74.9628C4.75295 74.318 4.39064 73.4433 4.39064 72.5314V8.17861C4.38941 7.72748 4.47732 7.28056 4.64911 6.86342C4.82089 6.44628 5.07333 6.06714 5.39189 5.74771C5.71045 5.42828 6.08871 5.17484 6.50538 5.00192C6.92205 4.82899 7.36895 4.73999 7.82007 4.73999Z" fill="#111214"/>
<path opacity="0.15" d="M4.55078 6.98968C4.55078 5.88742 6.82071 5 7.92299 5H72.0886C73.1908 5 75.4608 5.93412 75.4608 6.98968V73.9103C75.4608 75.0126 73.1908 75.9 72.0979 75.9H7.92299C6.83005 75.9 4.55078 74.9659 4.55078 73.9103V6.98968Z" fill="#121215"/>
<path opacity="0.13" d="M4.70996 7.27308C4.70996 6.12445 6.86714 5.19995 8.01578 5.19995H71.9941C73.1427 5.19995 75.3 6.13379 75.3 7.27308V73.6975C75.3 74.8461 73.1427 75.7799 71.9941 75.7799H8.02513C6.87649 75.7799 4.70996 74.8461 4.70996 73.6975V7.27308Z" fill="#131316"/>
<path opacity="0.11" d="M4.87988 7.58579C4.87988 6.39083 6.92449 5.41992 8.1195 5.41992H71.9403C73.1353 5.41992 75.1799 6.35349 75.1799 7.58579V73.5141C75.1799 74.709 73.1353 75.6799 71.9403 75.6799H8.1195C6.92449 75.6799 4.87988 74.7464 4.87988 73.5141V7.58579Z" fill="#131417"/>
<path opacity="0.1" d="M5.04004 7.90836C5.04004 6.65781 6.97189 5.6499 8.21316 5.6499H71.7975C73.0481 5.6499 74.98 6.65781 74.98 7.90836V73.2915C74.98 74.542 73.0481 75.5499 71.7975 75.5499H8.21316C6.97189 75.5499 5.04004 74.542 5.04004 73.2915V7.90836Z" fill="#141518"/>
<path opacity="0.08" d="M5.2002 8.22126C5.2002 6.9244 7.06621 5.87012 8.31642 5.87012H71.704C73.0009 5.87012 74.8202 6.9244 74.8202 8.22126V73.139C74.8202 74.4358 72.9542 75.4901 71.704 75.4901H8.31642C7.01956 75.4901 5.2002 74.4358 5.2002 73.139V8.22126Z" fill="#151619"/>
<path opacity="0.06" d="M5.36035 8.53444C5.36035 7.19135 7.06716 6.1001 8.41026 6.1001H71.6104C72.9535 6.1001 74.6603 7.19135 74.6603 8.53444V72.9557C74.6603 74.2988 72.9535 75.3901 71.6104 75.3901H8.41026C7.06716 75.3901 5.36035 74.2988 5.36035 72.9557V8.53444Z" fill="#16171A"/>
<path opacity="0.05" d="M5.52008 8.84688C5.52008 7.45759 7.11452 6.32007 8.50381 6.32007H71.507C72.9057 6.32007 74.4908 7.45759 74.4908 8.84688V72.7632C74.4908 74.1619 72.9057 75.2901 71.507 75.2901H8.49448C7.10518 75.2901 5.51074 74.1619 5.51074 72.7632L5.52008 8.84688Z" fill="#17171B"/>
<path opacity="0.03" d="M5.70866 9.16926C5.77877 8.44504 6.11871 7.77368 6.66093 7.28848C7.20316 6.80327 7.90802 6.5397 8.63559 6.5501H71.4431C72.1697 6.53989 72.8734 6.80378 73.4141 7.28917C73.9548 7.77457 74.2928 8.44584 74.3607 9.16926V72.551C74.2928 73.2744 73.9548 73.9457 73.4141 74.4311C72.8734 74.9165 72.1697 75.1804 71.4431 75.1701H8.60759C7.88003 75.1805 7.17517 74.917 6.63294 74.4318C6.09072 73.9466 5.75078 73.2752 5.68066 72.551L5.70866 9.16926Z" fill="#17181C"/>
<path opacity="0.02" d="M5.83984 9.48209C5.87589 8.7496 6.19371 8.05938 6.72684 7.55578C7.25998 7.05217 7.96716 6.77416 8.70052 6.77985H71.3092C72.0459 6.76225 72.7598 7.0363 73.2955 7.54235C73.8313 8.04841 74.1455 8.74555 74.1699 9.48209V72.3977C74.1455 73.1343 73.8313 73.8314 73.2955 74.3375C72.7598 74.8435 72.0459 75.1176 71.3092 75.1H8.70052C7.96716 75.1057 7.25998 74.8276 6.72684 74.324C6.19371 73.8204 5.87589 73.1302 5.83984 72.3977V9.48209Z" fill="#18191D"/>
<path opacity="0.09" d="M25.001 -7H54.001L39.501 85L25.001 -7Z" fill="url(#paint1_linear_2158_5535)"/>
<path opacity="0.09" d="M77.4072 -6.08691L95.5938 4.41309L40.5005 78.8374L77.4072 -6.08691Z" fill="url(#paint2_linear_2158_5535)"/>
<path opacity="0.09" d="M121.216 39.9526L126.651 60.2371L35.0682 73.9062L121.216 39.9526Z" fill="url(#paint3_linear_2158_5535)"/>
<path opacity="0.09" d="M-42.2139 39.9526L-47.6491 60.2371L43.9337 73.9062L-42.2139 39.9526Z" fill="url(#paint4_linear_2158_5535)"/>
<path opacity="0.09" d="M1.59375 -6.08691L-16.5928 4.41309L38.5005 78.8374L1.59375 -6.08691Z" fill="url(#paint5_linear_2158_5535)"/>
<path d="M39.6456 71.5196L40.5 72.9246L41.3544 71.5196L63.8544 34.5196L64.7785 33H63H18H16.2215L17.1456 34.5196L39.6456 71.5196Z" fill="#3E2A10" stroke="#3E2A10" stroke-width="2"/>
<rect x="80.001" y="65" width="14" height="80" transform="rotate(90 80.001 65)" fill="url(#paint6_linear_2158_5535)" fill-opacity="0.8"/>
<g filter="url(#filter0_f_2158_5535)">
<circle cx="39.5" cy="84.5" r="37.5" fill="#FFC701" fill-opacity="0.4"/>
</g>
<rect x="80" y="60" width="19" height="80" transform="rotate(90 80 60)" fill="url(#paint7_linear_2158_5535)" fill-opacity="0.35"/>
<path d="M0 80V0H1V78.1176L0 80Z" fill="url(#paint8_linear_2158_5535)"/>
<path d="M80 80H0L0.941176 78H79.0682L80 80Z" fill="url(#paint9_linear_2158_5535)"/>
<path d="M79.9998 0V80L79.0098 78.1176V0H79.9998Z" fill="url(#paint10_linear_2158_5535)"/>
</g>
<defs>
<filter id="filter0_f_2158_5535" x="-26" y="19" width="131" height="131" filterUnits="userSpaceOnUse" color-interpolation-filters="sRGB">
<feFlood flood-opacity="0" result="BackgroundImageFix"/>
<feBlend mode="normal" in="SourceGraphic" in2="BackgroundImageFix" result="shape"/>
<feGaussianBlur stdDeviation="14" result="effect1_foregroundBlur_2158_5535"/>
</filter>
<linearGradient id="paint0_linear_2158_5535" x1="40" y1="5.50588" x2="40" y2="92.2353" gradientUnits="userSpaceOnUse">
<stop stop-color="#2C292E"/>
<stop offset="1" stop-color="#191A1E"/>
</linearGradient>
<linearGradient id="paint1_linear_2158_5535" x1="39.501" y1="-7" x2="39.501" y2="85" gradientUnits="userSpaceOnUse">
<stop stop-color="#FFC701"/>
<stop offset="1" stop-color="#E04F21" stop-opacity="0"/>
</linearGradient>
<linearGradient id="paint2_linear_2158_5535" x1="86.5005" y1="-0.836914" x2="40.5005" y2="78.8374" gradientUnits="userSpaceOnUse">
<stop stop-color="#FFC701"/>
<stop offset="0.510417" stop-color="#E04F21" stop-opacity="0"/>
</linearGradient>
<linearGradient id="paint3_linear_2158_5535" x1="123.933" y1="50.0949" x2="35.0682" y2="73.9062" gradientUnits="userSpaceOnUse">
<stop stop-color="#FFC701"/>
<stop offset="0.510417" stop-color="#E04F21" stop-opacity="0"/>
</linearGradient>
<linearGradient id="paint4_linear_2158_5535" x1="-44.9315" y1="50.0949" x2="43.9337" y2="73.9062" gradientUnits="userSpaceOnUse">
<stop stop-color="#FFC701"/>
<stop offset="0.510417" stop-color="#E04F21" stop-opacity="0"/>
</linearGradient>
<linearGradient id="paint5_linear_2158_5535" x1="-7.49952" y1="-0.836914" x2="38.5005" y2="78.8374" gradientUnits="userSpaceOnUse">
<stop stop-color="#FFC701"/>
<stop offset="0.510417" stop-color="#E04F21" stop-opacity="0"/>
</linearGradient>
<linearGradient id="paint6_linear_2158_5535" x1="94.001" y1="108.902" x2="80.001" y2="108.902" gradientUnits="userSpaceOnUse">
<stop/>
<stop offset="1" stop-opacity="0"/>
</linearGradient>
<linearGradient id="paint7_linear_2158_5535" x1="99" y1="103.902" x2="80" y2="103.902" gradientUnits="userSpaceOnUse">
<stop/>
<stop offset="1" stop-opacity="0"/>
</linearGradient>
<linearGradient id="paint8_linear_2158_5535" x1="-0.38" y1="40" x2="81.57" y2="40" gradientUnits="userSpaceOnUse">
<stop stop-color="#2C292E"/>
<stop offset="0.63" stop-color="#636363"/>
<stop offset="1" stop-color="#2C292E"/>
</linearGradient>
<linearGradient id="paint9_linear_2158_5535" x1="-0.357647" y1="37.5" x2="76.7718" y2="37.5" gradientUnits="userSpaceOnUse">
<stop stop-color="#2C292E"/>
<stop offset="0.63" stop-color="#636363"/>
<stop offset="1" stop-color="#2C292E"/>
</linearGradient>
<linearGradient id="paint10_linear_2158_5535" x1="-5.38025" y1="40" x2="76.5698" y2="40" gradientUnits="userSpaceOnUse">
<stop stop-color="#2C292E"/>
<stop offset="0.63" stop-color="#636363"/>
<stop offset="1" stop-color="#2C292E"/>
</linearGradient>
<clipPath id="clip0_2158_5535">
<rect width="80" height="80" fill="white"/>
</clipPath>
</defs>
</svg>
