<svg width="80" height="80" viewBox="0 0 80 80" fill="none" xmlns="http://www.w3.org/2000/svg">
<g clip-path="url(#clip0_2160_6129)">
<path d="M80 0H0V80H80V0Z" fill="url(#paint0_linear_2160_6129)"/>
<path opacity="0.5" d="M79.01 0H1V78H79.01V0Z" fill="black"/>
<path opacity="0.48" d="M1.16992 0.314542L5.86737 0.22998H74.1025C74.1025 0.22998 78.7999 0.229984 78.7999 0.314542V77.816L74.1025 77.91H5.89552C5.83915 77.91 1.19808 77.863 1.19808 77.816L1.16992 0.314542Z" fill="#010101"/>
<path opacity="0.47" d="M1.32759 0.637811C1.32759 0.534486 5.87397 0.449951 6.02427 0.449951H74.0133C74.1073 0.449951 78.71 0.534486 78.71 0.637811V77.6615C78.71 77.7554 74.1543 77.84 74.0133 77.84H5.98671C5.88339 77.84 1.29004 77.7554 1.29004 77.6615L1.32759 0.637811Z" fill="#020202"/>
<path opacity="0.45" d="M1.48926 0.952249C3.01104 0.782193 4.54058 0.691303 6.07179 0.679932H73.9278C75.4653 0.69131 77.0012 0.7822 78.5292 0.952249V77.4376C77.0043 77.6077 75.4716 77.6986 73.9372 77.7099H6.08119C4.54685 77.6986 3.01418 77.6077 1.48926 77.4376V0.952249Z" fill="#020303"/>
<path opacity="0.44" d="M1.64941 1.26666C1.64941 1.06951 5.96797 0.909912 6.17451 0.909912H73.835C74.0321 0.909912 78.3694 1.06951 78.3694 1.26666V77.2538C78.3694 77.4509 74.0415 77.6199 73.8443 77.6199H6.18391C5.97737 77.6199 1.64941 77.4509 1.64941 77.2538V1.26666Z" fill="#030304"/>
<path opacity="0.42" d="M1.80957 1.59002C1.80957 1.33661 6.02374 1.13013 6.26777 1.13013H73.7414C73.9854 1.13013 78.1996 1.33661 78.1996 1.59002V77.0602C78.1996 77.3136 73.9948 77.5201 73.7414 77.5201H6.27716C6.02375 77.5201 1.80957 77.3136 1.80957 77.0602V1.59002Z" fill="#040405"/>
<path opacity="0.4" d="M1.96973 1.90433C1.96973 1.60406 6.07021 1.36011 6.37047 1.36011H73.639C73.9393 1.36011 78.0397 1.60406 78.0397 1.90433V76.8759C78.0397 77.1761 73.9486 77.4201 73.6484 77.4201H6.41738C6.11711 77.4201 2.01663 77.1761 2.01663 76.8759L1.96973 1.90433Z" fill="#050506"/>
<path opacity="0.39" d="M2.12988 2.21797C2.12988 1.87088 6.11672 1.58008 6.46381 1.58008H73.546C73.893 1.58008 77.8799 1.87088 77.8799 2.21797V76.6916C77.8799 77.0387 73.9024 77.3201 73.5553 77.3201H6.4732C6.11673 77.3201 2.12988 77.0387 2.12988 76.6916V2.21797Z" fill="#060607"/>
<path opacity="0.37" d="M2.2998 2.53218C2.2998 2.13829 6.16363 1.81006 6.55752 1.81006H73.4433C73.8466 1.81006 77.7198 2.13829 77.7198 2.53218V76.4986C77.7198 76.9018 73.856 77.2301 73.4527 77.2301H6.5669C6.16364 77.2301 2.2998 76.9018 2.2998 76.4986V2.53218Z" fill="#060708"/>
<path opacity="0.35" d="M2.45996 2.8551C2.45996 2.39568 6.21025 2.03003 6.66029 2.03003H73.3502C73.8003 2.03003 77.5599 2.39568 77.5599 2.8551V76.3143C77.5599 76.7644 73.8096 77.13 73.3596 77.13H6.66968C6.21026 77.13 2.45996 76.7644 2.45996 76.3143V2.8551Z" fill="#070809"/>
<path opacity="0.34" d="M2.61914 3.16736C2.61914 2.66117 6.256 2.22998 6.75279 2.22998H73.2562C73.753 2.22998 77.3992 2.63305 77.3992 3.16736V76.1326C77.3992 76.6294 73.7624 77.07 73.2562 77.07H6.76217C6.25601 77.07 2.61914 76.6669 2.61914 76.1326V3.16736Z" fill="#08080A"/>
<path opacity="0.32" d="M2.7793 3.48328C2.7793 2.93041 6.30268 2.48999 6.85555 2.48999H73.1536C73.7065 2.48999 77.2393 2.93041 77.2393 3.48328V75.9373C77.2393 76.4902 73.7159 76.94 73.163 76.94H6.85555C6.30268 76.94 2.7793 76.4902 2.7793 75.9373V3.48328Z" fill="#09090B"/>
<path opacity="0.31" d="M2.93945 3.79666C2.93945 3.1971 6.34951 2.70996 6.94907 2.70996H73.0605C73.6601 2.70996 77.0795 3.1971 77.0795 3.79666V75.7533C77.0795 76.3528 73.6695 76.84 73.0699 76.84H6.95845C6.35889 76.84 2.93945 76.3528 2.93945 75.7533V3.79666Z" fill="#0A0A0C"/>
<path opacity="0.29" d="M3.09961 4.11999C3.09961 3.46441 6.39628 2.93994 7.04251 2.93994H72.9767C73.6229 2.93994 76.9196 3.46441 76.9196 4.11999V75.5693C76.9196 76.2155 73.6323 76.7399 72.9767 76.7399H7.05188C6.40565 76.7399 3.09961 76.2155 3.09961 75.5693V4.11999Z" fill="#0A0B0D"/>
<path opacity="0.27" d="M3.25977 4.43328C3.25977 3.73105 6.4432 3.15991 7.14542 3.15991H72.8642C73.5664 3.15991 76.7498 3.73105 76.7498 4.43328V75.3765C76.7498 76.0788 73.5758 76.6499 72.8735 76.6499H7.14542C6.45256 76.6499 3.25977 76.0788 3.25977 75.3765V4.43328Z" fill="#0B0C0E"/>
<path opacity="0.26" d="M3.41855 4.74741C3.41855 3.99857 6.48871 3.39014 7.23754 3.39014H72.7601C73.5089 3.39014 76.5792 3.99857 76.5792 4.74741V75.2229C76.5792 75.9717 73.5183 76.5801 72.7601 76.5801H7.23754C6.48871 76.5801 3.40918 75.9717 3.40918 75.2229L3.41855 4.74741Z" fill="#0C0D0F"/>
<path opacity="0.24" d="M3.58984 5.03116C3.58984 4.23576 6.53745 3.59009 7.33284 3.59009H72.6669C73.4622 3.59009 76.4099 4.23576 76.4099 5.03116V74.979C76.4099 75.7744 73.4622 76.4201 72.6669 76.4201H7.34221C6.54682 76.4201 3.59921 75.7744 3.59921 74.979L3.58984 5.03116Z" fill="#0D0D0F"/>
<path opacity="0.23" d="M3.70996 5.38367C3.70996 4.53236 6.51646 3.84009 7.39584 3.84009H72.5347C73.386 3.84009 76.23 4.53236 76.23 5.38367V74.8165C76.23 75.6678 73.4235 76.3601 72.5441 76.3601H7.45196C6.61001 76.3601 3.76609 75.6678 3.76609 74.8165L3.70996 5.38367Z" fill="#0E0E10"/>
<path opacity="0.21" d="M3.90918 5.69736C3.90918 4.76213 6.6307 4.07007 7.52853 4.07007H72.4805C73.4157 4.07007 76.1092 4.79954 76.1092 5.69736V74.6328C76.1092 75.568 73.3783 76.2601 72.4805 76.2601H7.53789C6.60266 76.2601 3.90918 75.5306 3.90918 74.6328V5.69736Z" fill="#0F0F11"/>
<path opacity="0.19" d="M4.06934 6.01035C4.06934 5.0754 6.67788 4.29004 7.63154 4.29004H72.3778C73.3127 4.29004 75.9493 5.06605 75.9493 6.01035V74.4397C75.9493 75.3747 73.3314 76.16 72.3871 76.16H7.63154C6.69658 76.16 4.06934 75.3934 4.06934 74.4397V6.01035Z" fill="#0F1012"/>
<path opacity="0.18" d="M4.22949 6.32396C4.22949 5.32385 6.72511 4.52002 7.72523 4.52002H72.2844C73.2845 4.52002 75.7895 5.32385 75.7895 6.32396V74.2567C75.7895 75.2568 73.2845 76.07 72.2844 76.07H7.73459C6.73447 76.07 4.22949 75.2568 4.22949 74.2567V6.32396Z" fill="#101113"/>
<path opacity="0.16" d="M7.8191 4.73999H72.1811C73.0931 4.73999 73.9676 5.10227 74.6125 5.74714C75.2573 6.392 75.6196 7.26663 75.6196 8.17861V72.5407C75.6196 73.4502 75.2583 74.3225 74.6152 74.9656C73.9721 75.6087 73.0999 75.97 72.1904 75.97H7.82822C6.91624 75.97 6.04171 75.6077 5.39684 74.9628C4.75198 74.318 4.38966 73.4433 4.38966 72.5314V8.17861C4.38843 7.72748 4.47634 7.28056 4.64813 6.86342C4.81992 6.44628 5.07235 6.06714 5.39091 5.74771C5.70947 5.42828 6.08773 5.17484 6.5044 5.00192C6.92107 4.82899 7.36797 4.73999 7.8191 4.73999Z" fill="#111214"/>
<path opacity="0.15" d="M4.5498 6.98968C4.5498 5.88742 6.81973 5 7.92201 5H72.0876C73.1898 5 75.4598 5.93412 75.4598 6.98968V73.9103C75.4598 75.0126 73.1899 75.9 72.0969 75.9H7.92201C6.82907 75.9 4.5498 74.9659 4.5498 73.9103V6.98968Z" fill="#121215"/>
<path opacity="0.13" d="M4.70996 7.27308C4.70996 6.12445 6.86714 5.19995 8.01578 5.19995H71.9941C73.1427 5.19995 75.3 6.13379 75.3 7.27308V73.6975C75.3 74.8461 73.1427 75.7799 71.9941 75.7799H8.02513C6.87649 75.7799 4.70996 74.8461 4.70996 73.6975V7.27308Z" fill="#131316"/>
<path opacity="0.11" d="M4.87988 7.58579C4.87988 6.39083 6.92449 5.41992 8.1195 5.41992H71.9403C73.1353 5.41992 75.1799 6.35349 75.1799 7.58579V73.5141C75.1799 74.709 73.1353 75.6799 71.9403 75.6799H8.1195C6.92449 75.6799 4.87988 74.7464 4.87988 73.5141V7.58579Z" fill="#131417"/>
<path opacity="0.1" d="M5.04004 7.90836C5.04004 6.65781 6.97189 5.6499 8.21316 5.6499H71.7975C73.0481 5.6499 74.98 6.65781 74.98 7.90836V73.2915C74.98 74.542 73.0481 75.5499 71.7975 75.5499H8.21316C6.97189 75.5499 5.04004 74.542 5.04004 73.2915V7.90836Z" fill="#141518"/>
<path opacity="0.08" d="M5.19922 8.22126C5.19922 6.9244 7.06523 5.87012 8.31544 5.87012H71.703C72.9999 5.87012 74.8192 6.9244 74.8192 8.22126V73.139C74.8192 74.4358 72.9533 75.4901 71.703 75.4901H8.31544C7.01858 75.4901 5.19922 74.4358 5.19922 73.139V8.22126Z" fill="#151619"/>
<path opacity="0.06" d="M5.35938 8.53444C5.35938 7.19135 7.06619 6.1001 8.40928 6.1001H71.6094C72.9525 6.1001 74.6594 7.19135 74.6594 8.53444V72.9557C74.6594 74.2988 72.9525 75.3901 71.6094 75.3901H8.40928C7.06619 75.3901 5.35938 74.2988 5.35938 72.9557V8.53444Z" fill="#16171A"/>
<path opacity="0.05" d="M5.5191 8.84688C5.5191 7.45759 7.11354 6.32007 8.50284 6.32007H71.5061C72.9047 6.32007 74.4898 7.45759 74.4898 8.84688V72.7632C74.4898 74.1619 72.9047 75.2901 71.5061 75.2901H8.4935C7.10421 75.2901 5.50977 74.1619 5.50977 72.7632L5.5191 8.84688Z" fill="#17171B"/>
<path opacity="0.03" d="M5.70768 9.16926C5.77779 8.44504 6.11774 7.77368 6.65996 7.28848C7.20218 6.80327 7.90704 6.5397 8.63461 6.5501H71.4421C72.1687 6.53989 72.8724 6.80378 73.4132 7.28917C73.9539 7.77457 74.2918 8.44584 74.3597 9.16926V72.551C74.2918 73.2744 73.9539 73.9457 73.4132 74.4311C72.8724 74.9165 72.1687 75.1804 71.4421 75.1701H8.60662C7.87905 75.1805 7.17419 74.917 6.63197 74.4318C6.08974 73.9466 5.7498 73.2752 5.67969 72.551L5.70768 9.16926Z" fill="#17181C"/>
<path opacity="0.02" d="M5.83984 9.48209C5.87589 8.7496 6.19371 8.05938 6.72684 7.55578C7.25998 7.05217 7.96716 6.77416 8.70052 6.77985H71.3092C72.0459 6.76225 72.7598 7.0363 73.2955 7.54235C73.8313 8.04841 74.1455 8.74555 74.1699 9.48209V72.3977C74.1455 73.1343 73.8313 73.8314 73.2955 74.3375C72.7598 74.8435 72.0459 75.1176 71.3092 75.1H8.70052C7.96716 75.1057 7.25998 74.8276 6.72684 74.324C6.19371 73.8204 5.87589 73.1302 5.83984 72.3977V9.48209Z" fill="#18191D"/>
<path opacity="0.19" d="M25 -6H54L39.5 86L25 -6Z" fill="url(#paint1_linear_2160_6129)"/>
<path opacity="0.19" d="M77.4062 -5.08691L95.5928 5.41309L40.4995 79.8374L77.4062 -5.08691Z" fill="url(#paint2_linear_2160_6129)"/>
<path opacity="0.19" d="M121.215 40.9526L126.65 61.2371L35.0673 74.9062L121.215 40.9526Z" fill="url(#paint3_linear_2160_6129)"/>
<path opacity="0.19" d="M-42.2148 40.9526L-47.65 61.2371L43.9327 74.9062L-42.2148 40.9526Z" fill="url(#paint4_linear_2160_6129)"/>
<path opacity="0.19" d="M1.59277 -5.08691L-16.5938 5.41309L38.4995 79.8374L1.59277 -5.08691Z" fill="url(#paint5_linear_2160_6129)"/>
<rect x="80" y="66" width="14" height="80" transform="rotate(90 80 66)" fill="url(#paint6_linear_2160_6129)" fill-opacity="0.35"/>
<path d="M0 80V0H1V78.1176L0 80Z" fill="url(#paint7_linear_2160_6129)"/>
<path d="M39.6456 71.5196L40.5 72.9246L41.3544 71.5196L63.8544 34.5196L64.7785 33H63H18H16.2215L17.1456 34.5196L39.6456 71.5196Z" fill="#280A39" stroke="#280A39" stroke-width="2"/>
<g filter="url(#filter0_f_2160_6129)">
<circle cx="39.5" cy="84.5" r="37.5" fill="#4A1669"/>
</g>
<rect x="80" y="65" width="14" height="80" transform="rotate(90 80 65)" fill="url(#paint8_linear_2160_6129)" fill-opacity="0.35"/>
<path d="M80 80H0L0.941176 78H79.0682L80 80Z" fill="url(#paint9_linear_2160_6129)"/>
<path d="M79.9998 0V80L79.0098 78.1176V0H79.9998Z" fill="url(#paint10_linear_2160_6129)"/>
</g>
<defs>
<filter id="filter0_f_2160_6129" x="-26" y="19" width="131" height="131" filterUnits="userSpaceOnUse" color-interpolation-filters="sRGB">
<feFlood flood-opacity="0" result="BackgroundImageFix"/>
<feBlend mode="normal" in="SourceGraphic" in2="BackgroundImageFix" result="shape"/>
<feGaussianBlur stdDeviation="14" result="effect1_foregroundBlur_2160_6129"/>
</filter>
<linearGradient id="paint0_linear_2160_6129" x1="40" y1="5.50588" x2="40" y2="92.2353" gradientUnits="userSpaceOnUse">
<stop stop-color="#2C292E"/>
<stop offset="1" stop-color="#191A1E"/>
</linearGradient>
<linearGradient id="paint1_linear_2160_6129" x1="39.5" y1="-6" x2="39.5" y2="86" gradientUnits="userSpaceOnUse">
<stop stop-color="#0601FF"/>
<stop offset="1" stop-color="#E04F21" stop-opacity="0"/>
</linearGradient>
<linearGradient id="paint2_linear_2160_6129" x1="86.4995" y1="0.163086" x2="40.4995" y2="79.8374" gradientUnits="userSpaceOnUse">
<stop stop-color="#0601FF"/>
<stop offset="1" stop-color="#E04F21" stop-opacity="0"/>
</linearGradient>
<linearGradient id="paint3_linear_2160_6129" x1="123.932" y1="51.0949" x2="35.0673" y2="74.9062" gradientUnits="userSpaceOnUse">
<stop stop-color="#0601FF"/>
<stop offset="1" stop-color="#E04F21" stop-opacity="0"/>
</linearGradient>
<linearGradient id="paint4_linear_2160_6129" x1="-44.9324" y1="51.0949" x2="43.9327" y2="74.9062" gradientUnits="userSpaceOnUse">
<stop stop-color="#0601FF"/>
<stop offset="1" stop-color="#E04F21" stop-opacity="0"/>
</linearGradient>
<linearGradient id="paint5_linear_2160_6129" x1="-7.50049" y1="0.163086" x2="38.4995" y2="79.8374" gradientUnits="userSpaceOnUse">
<stop stop-color="#0601FF"/>
<stop offset="1" stop-color="#E04F21" stop-opacity="0"/>
</linearGradient>
<linearGradient id="paint6_linear_2160_6129" x1="94" y1="109.902" x2="80" y2="109.902" gradientUnits="userSpaceOnUse">
<stop/>
<stop offset="1" stop-opacity="0"/>
</linearGradient>
<linearGradient id="paint7_linear_2160_6129" x1="-0.38" y1="40" x2="81.57" y2="40" gradientUnits="userSpaceOnUse">
<stop stop-color="#2C292E"/>
<stop offset="0.63" stop-color="#636363"/>
<stop offset="1" stop-color="#2C292E"/>
</linearGradient>
<linearGradient id="paint8_linear_2160_6129" x1="94" y1="108.902" x2="80" y2="108.902" gradientUnits="userSpaceOnUse">
<stop/>
<stop offset="1" stop-opacity="0"/>
</linearGradient>
<linearGradient id="paint9_linear_2160_6129" x1="-0.357647" y1="37.5" x2="76.7718" y2="37.5" gradientUnits="userSpaceOnUse">
<stop stop-color="#2C292E"/>
<stop offset="0.63" stop-color="#636363"/>
<stop offset="1" stop-color="#2C292E"/>
</linearGradient>
<linearGradient id="paint10_linear_2160_6129" x1="-5.38025" y1="40" x2="76.5698" y2="40" gradientUnits="userSpaceOnUse">
<stop stop-color="#2C292E"/>
<stop offset="0.63" stop-color="#636363"/>
<stop offset="1" stop-color="#2C292E"/>
</linearGradient>
<clipPath id="clip0_2160_6129">
<rect width="80" height="80" fill="white"/>
</clipPath>
</defs>
</svg>
