<svg width="80" height="80" viewBox="0 0 80 80" fill="none" xmlns="http://www.w3.org/2000/svg">
<path d="M80 0H0V80H80V0Z" fill="url(#paint0_linear_1257_49492)"/>
<path opacity="0.5" d="M79.01 0H1V78H79.01V0Z" fill="black"/>
<path opacity="0.48" d="M1.16992 0.314542L5.86737 0.22998H74.1025C74.1025 0.22998 78.7999 0.229984 78.7999 0.314542V77.816L74.1025 77.91H5.89552C5.83915 77.91 1.19808 77.863 1.19808 77.816L1.16992 0.314542Z" fill="#010101"/>
<path opacity="0.47" d="M1.32759 0.637811C1.32759 0.534486 5.87397 0.449951 6.02427 0.449951H74.0133C74.1073 0.449951 78.71 0.534486 78.71 0.637811V77.6615C78.71 77.7554 74.1542 77.84 74.0133 77.84H5.98671C5.88339 77.84 1.29004 77.7554 1.29004 77.6615L1.32759 0.637811Z" fill="#020202"/>
<path opacity="0.45" d="M1.48975 0.952249C3.01153 0.782193 4.54106 0.691303 6.07228 0.679932H73.9283C75.4658 0.69131 77.0017 0.7822 78.5297 0.952249V77.4376C77.0048 77.6077 75.4721 77.6986 73.9377 77.7099H6.08168C4.54734 77.6986 3.01467 77.6077 1.48975 77.4376V0.952249Z" fill="#020303"/>
<path opacity="0.44" d="M1.6499 1.26666C1.6499 1.06951 5.96846 0.909912 6.175 0.909912H73.8354C74.0326 0.909912 78.3699 1.06951 78.3699 1.26666V77.2538C78.3699 77.4509 74.042 77.6199 73.8448 77.6199H6.1844C5.97786 77.6199 1.6499 77.4509 1.6499 77.2538V1.26666Z" fill="#030304"/>
<path opacity="0.42" d="M1.81006 1.59002C1.81006 1.33661 6.02423 1.13013 6.26825 1.13013H73.7419C73.9859 1.13013 78.2001 1.33661 78.2001 1.59002V77.0602C78.2001 77.3136 73.9953 77.5201 73.7419 77.5201H6.27765C6.02424 77.5201 1.81006 77.3136 1.81006 77.0602V1.59002Z" fill="#040405"/>
<path opacity="0.4" d="M1.97021 1.90433C1.97021 1.60406 6.0707 1.36011 6.37096 1.36011H73.6395C73.9397 1.36011 78.0402 1.60406 78.0402 1.90433V76.8759C78.0402 77.1761 73.9491 77.4201 73.6489 77.4201H6.41787C6.1176 77.4201 2.01712 77.1761 2.01712 76.8759L1.97021 1.90433Z" fill="#050506"/>
<path opacity="0.39" d="M2.12988 2.21797C2.12988 1.87088 6.11672 1.58008 6.46381 1.58008H73.546C73.893 1.58008 77.8799 1.87088 77.8799 2.21797V76.6916C77.8799 77.0387 73.9024 77.3201 73.5553 77.3201H6.4732C6.11673 77.3201 2.12988 77.0387 2.12988 76.6916V2.21797Z" fill="#060607"/>
<path opacity="0.37" d="M2.30029 2.53218C2.30029 2.13829 6.16412 1.81006 6.558 1.81006H73.4438C73.8471 1.81006 77.7203 2.13829 77.7203 2.53218V76.4986C77.7203 76.9018 73.8564 77.2301 73.4532 77.2301H6.56739C6.16413 77.2301 2.30029 76.9018 2.30029 76.4986V2.53218Z" fill="#060708"/>
<path opacity="0.35" d="M2.45996 2.8551C2.45996 2.39568 6.21025 2.03003 6.66029 2.03003H73.3502C73.8003 2.03003 77.5599 2.39568 77.5599 2.8551V76.3143C77.5599 76.7644 73.8096 77.13 73.3596 77.13H6.66968C6.21026 77.13 2.45996 76.7644 2.45996 76.3143V2.8551Z" fill="#070809"/>
<path opacity="0.34" d="M2.61963 3.16736C2.61963 2.66117 6.25649 2.22998 6.75328 2.22998H73.2567C73.7535 2.22998 77.3997 2.63305 77.3997 3.16736V76.1326C77.3997 76.6294 73.7628 77.07 73.2567 77.07H6.76266C6.2565 77.07 2.61963 76.6669 2.61963 76.1326V3.16736Z" fill="#08080A"/>
<path opacity="0.32" d="M2.77979 3.48328C2.77979 2.93041 6.30317 2.48999 6.85604 2.48999H73.1541C73.707 2.48999 77.2398 2.93041 77.2398 3.48328V75.9373C77.2398 76.4902 73.7164 76.94 73.1635 76.94H6.85604C6.30317 76.94 2.77979 76.4902 2.77979 75.9373V3.48328Z" fill="#09090B"/>
<path opacity="0.31" d="M2.93994 3.79666C2.93994 3.1971 6.35 2.70996 6.94956 2.70996H73.061C73.6606 2.70996 77.08 3.1971 77.08 3.79666V75.7533C77.08 76.3528 73.67 76.84 73.0704 76.84H6.95894C6.35937 76.84 2.93994 76.3528 2.93994 75.7533V3.79666Z" fill="#0A0A0C"/>
<path opacity="0.29" d="M3.1001 4.11999C3.1001 3.46441 6.39677 2.93994 7.043 2.93994H72.9771C73.6234 2.93994 76.9201 3.46441 76.9201 4.11999V75.5693C76.9201 76.2155 73.6327 76.7399 72.9771 76.7399H7.05237C6.40614 76.7399 3.1001 76.2155 3.1001 75.5693V4.11999Z" fill="#0A0B0D"/>
<path opacity="0.27" d="M3.26025 4.43328C3.26025 3.73105 6.44369 3.15991 7.14591 3.15991H72.8646C73.5669 3.15991 76.7502 3.73105 76.7502 4.43328V75.3766C76.7502 76.0788 73.5762 76.6499 72.874 76.6499H7.14591C6.45305 76.6499 3.26025 76.0788 3.26025 75.3766V4.43328Z" fill="#0B0C0E"/>
<path opacity="0.26" d="M3.41904 4.74741C3.41904 3.99857 6.4892 3.39014 7.23803 3.39014H72.7606C73.5094 3.39014 76.5797 3.99857 76.5797 4.74741V75.2229C76.5797 75.9717 73.5188 76.5801 72.7606 76.5801H7.23803C6.4892 76.5801 3.40967 75.9717 3.40967 75.2229L3.41904 4.74741Z" fill="#0C0D0F"/>
<path opacity="0.24" d="M3.58984 5.03116C3.58984 4.23576 6.53745 3.59009 7.33284 3.59009H72.6669C73.4622 3.59009 76.4099 4.23576 76.4099 5.03116V74.979C76.4099 75.7744 73.4622 76.4201 72.6669 76.4201H7.34221C6.54682 76.4201 3.59921 75.7744 3.59921 74.979L3.58984 5.03116Z" fill="#0D0D0F"/>
<path opacity="0.23" d="M3.70996 5.38367C3.70996 4.53236 6.51646 3.84009 7.39584 3.84009H72.5347C73.386 3.84009 76.23 4.53236 76.23 5.38367V74.8165C76.23 75.6678 73.4235 76.3601 72.5441 76.3601H7.45196C6.61001 76.3601 3.76609 75.6678 3.76609 74.8165L3.70996 5.38367Z" fill="#0E0E10"/>
<path opacity="0.21" d="M3.90967 5.69736C3.90967 4.76213 6.63119 4.07007 7.52902 4.07007H72.481C73.4162 4.07007 76.1097 4.79954 76.1097 5.69736V74.6328C76.1097 75.568 73.3788 76.2601 72.481 76.2601H7.53838C6.60314 76.2601 3.90967 75.5306 3.90967 74.6328V5.69736Z" fill="#0F0F11"/>
<path opacity="0.19" d="M4.06982 6.01035C4.06982 5.0754 6.67837 4.29004 7.63203 4.29004H72.3783C73.3132 4.29004 75.9498 5.06605 75.9498 6.01035V74.4397C75.9498 75.3747 73.3319 76.16 72.3876 76.16H7.63203C6.69707 76.16 4.06982 75.3934 4.06982 74.4397V6.01035Z" fill="#0F1012"/>
<path opacity="0.18" d="M4.22998 6.32396C4.22998 5.32385 6.7256 4.52002 7.72572 4.52002H72.2849C73.285 4.52002 75.79 5.32385 75.79 6.32396V74.2567C75.79 75.2568 73.285 76.07 72.2849 76.07H7.73507C6.73495 76.07 4.22998 75.2568 4.22998 74.2567V6.32396Z" fill="#101113"/>
<path opacity="0.16" d="M7.81959 4.73999H72.1816C73.0936 4.73999 73.9681 5.10227 74.613 5.74714C75.2578 6.392 75.6201 7.26663 75.6201 8.17861V72.5407C75.6201 73.4502 75.2588 74.3225 74.6157 74.9656C73.9726 75.6087 73.1004 75.97 72.1909 75.97H7.82871C6.91673 75.97 6.0422 75.6077 5.39733 74.9628C4.75246 74.318 4.39015 73.4433 4.39015 72.5314V8.17861C4.38892 7.72748 4.47683 7.28056 4.64862 6.86342C4.8204 6.44628 5.07284 6.06714 5.3914 5.74771C5.70996 5.42828 6.08822 5.17484 6.50489 5.00192C6.92156 4.82899 7.36846 4.73999 7.81959 4.73999V4.73999Z" fill="#111214"/>
<path opacity="0.15" d="M4.55029 6.98968C4.55029 5.88742 6.82022 5 7.9225 5H72.0881C73.1903 5 75.4603 5.93412 75.4603 6.98968V73.9103C75.4603 75.0126 73.1903 75.9 72.0974 75.9H7.9225C6.82956 75.9 4.55029 74.9659 4.55029 73.9103V6.98968Z" fill="#121215"/>
<path opacity="0.13" d="M4.70996 7.27308C4.70996 6.12445 6.86714 5.19995 8.01578 5.19995H71.9941C73.1427 5.19995 75.3 6.13379 75.3 7.27308V73.6975C75.3 74.8461 73.1427 75.7799 71.9941 75.7799H8.02513C6.87649 75.7799 4.70996 74.8461 4.70996 73.6975V7.27308Z" fill="#131316"/>
<path opacity="0.11" d="M4.87988 7.58579C4.87988 6.39083 6.92449 5.41992 8.1195 5.41992H71.9403C73.1353 5.41992 75.1799 6.35349 75.1799 7.58579V73.514C75.1799 74.709 73.1353 75.6799 71.9403 75.6799H8.1195C6.92449 75.6799 4.87988 74.7464 4.87988 73.514V7.58579Z" fill="#131417"/>
<path opacity="0.1" d="M5.04004 7.90836C5.04004 6.65781 6.97189 5.6499 8.21316 5.6499H71.7975C73.0481 5.6499 74.98 6.65781 74.98 7.90836V73.2915C74.98 74.542 73.0481 75.5499 71.7975 75.5499H8.21316C6.97189 75.5499 5.04004 74.542 5.04004 73.2915V7.90836Z" fill="#141518"/>
<path opacity="0.08" d="M5.19971 8.22126C5.19971 6.9244 7.06572 5.87012 8.31593 5.87012H71.7035C73.0004 5.87012 74.8197 6.9244 74.8197 8.22126V73.139C74.8197 74.4358 72.9537 75.4901 71.7035 75.4901H8.31593C7.01907 75.4901 5.19971 74.4358 5.19971 73.139V8.22126Z" fill="#151619"/>
<path opacity="0.06" d="M5.35986 8.53444C5.35986 7.19135 7.06668 6.1001 8.40977 6.1001H71.6099C72.953 6.1001 74.6599 7.19135 74.6599 8.53444V72.9558C74.6599 74.2988 72.953 75.3901 71.6099 75.3901H8.40977C7.06668 75.3901 5.35986 74.2988 5.35986 72.9558V8.53444Z" fill="#16171A"/>
<path opacity="0.05" d="M5.51959 8.84688C5.51959 7.45759 7.11403 6.32007 8.50332 6.32007H71.5066C72.9052 6.32007 74.4903 7.45759 74.4903 8.84688V72.7632C74.4903 74.1619 72.9052 75.2901 71.5066 75.2901H8.49399C7.10469 75.2901 5.51025 74.1619 5.51025 72.7632L5.51959 8.84688Z" fill="#17171B"/>
<path opacity="0.03" d="M5.70817 9.16926C5.77828 8.44504 6.11822 7.77368 6.66045 7.28848C7.20267 6.80327 7.90753 6.5397 8.6351 6.5501H71.4426C72.1692 6.53989 72.8729 6.80378 73.4136 7.28917C73.9543 7.77457 74.2923 8.44584 74.3602 9.16926V72.551C74.2923 73.2744 73.9543 73.9457 73.4136 74.4311C72.8729 74.9165 72.1692 75.1804 71.4426 75.1701H8.60711C7.87954 75.1805 7.17468 74.917 6.63246 74.4318C6.09023 73.9466 5.75029 73.2752 5.68018 72.551L5.70817 9.16926Z" fill="#17181C"/>
<path opacity="0.02" d="M5.83984 9.48209C5.87589 8.7496 6.19371 8.05938 6.72684 7.55578C7.25998 7.05217 7.96716 6.77416 8.70052 6.77985H71.3092C72.0459 6.76225 72.7598 7.0363 73.2955 7.54235C73.8313 8.04841 74.1455 8.74555 74.1699 9.48209V72.3977C74.1455 73.1343 73.8313 73.8314 73.2955 74.3375C72.7598 74.8435 72.0459 75.1176 71.3092 75.1H8.70052C7.96716 75.1057 7.25998 74.8276 6.72684 74.324C6.19371 73.8204 5.87589 73.1302 5.83984 72.3977V9.48209Z" fill="#18191D"/>
<path d="M0 80V0H1V78.1176L0 80Z" fill="url(#paint1_linear_1257_49492)"/>
<path d="M80 80H0L0.941176 78H79.0682L80 80Z" fill="url(#paint2_linear_1257_49492)"/>
<path d="M80 0V80L79.01 78.1176V0H80Z" fill="url(#paint3_linear_1257_49492)"/>
<defs>
<linearGradient id="paint0_linear_1257_49492" x1="40" y1="5.50588" x2="40" y2="92.2353" gradientUnits="userSpaceOnUse">
<stop stop-color="#2C292E"/>
<stop offset="1" stop-color="#191A1E"/>
</linearGradient>
<linearGradient id="paint1_linear_1257_49492" x1="-0.38" y1="40" x2="81.57" y2="40" gradientUnits="userSpaceOnUse">
<stop stop-color="#2C292E"/>
<stop offset="0.63" stop-color="#636363"/>
<stop offset="1" stop-color="#2C292E"/>
</linearGradient>
<linearGradient id="paint2_linear_1257_49492" x1="-0.357647" y1="37.5" x2="76.7718" y2="37.5" gradientUnits="userSpaceOnUse">
<stop stop-color="#2C292E"/>
<stop offset="0.63" stop-color="#636363"/>
<stop offset="1" stop-color="#2C292E"/>
</linearGradient>
<linearGradient id="paint3_linear_1257_49492" x1="-5.38" y1="40" x2="76.57" y2="40" gradientUnits="userSpaceOnUse">
<stop stop-color="#2C292E"/>
<stop offset="0.63" stop-color="#636363"/>
<stop offset="1" stop-color="#2C292E"/>
</linearGradient>
</defs>
</svg>
