<svg width="22" height="14" viewBox="0 0 22 14" fill="none" xmlns="http://www.w3.org/2000/svg">
<g clip-path="url(#clip0_1022_51311)">
<path fill-rule="evenodd" clip-rule="evenodd" d="M10.088 9.41343C10.088 10.5786 9.68945 11.5292 8.86151 12.2344C8.03364 12.9396 6.96046 13.3076 5.61128 13.3076H0V0H5.24333C7.91096 0 9.62808 1.44115 9.62808 3.77152C9.62808 4.90604 9.19884 5.76459 8.40156 6.40848C9.53611 7.08308 10.088 8.06429 10.088 9.41343ZM3.40356 3.03561V5.12068H5.15134C5.76459 5.12068 6.22455 4.75272 6.22455 4.07814C6.22455 3.46489 5.76459 3.03561 5.15134 3.03561H3.40356ZM5.51929 10.272C6.19389 10.272 6.6845 9.81207 6.6845 9.13747C6.6845 8.46293 6.22455 8.00298 5.51929 8.00298H3.40356V10.2414H5.51929V10.272ZM14.3195 9.7201C14.6568 10.4867 15.3314 10.8853 16.4352 10.8853C17.1098 10.8853 17.6924 10.6707 18.1523 10.2107L20.4214 11.8052C19.5015 12.9704 18.1217 13.5836 16.3432 13.5836C14.7181 13.5836 13.4302 13.1236 12.4798 12.1731C11.4985 11.2226 11.0386 10.0267 11.0386 8.58555C11.0386 7.1751 11.4985 5.94859 12.449 4.99804C13.3996 4.01683 14.6261 3.55689 16.0673 3.55689C17.4777 3.55689 18.6429 4.01683 19.5935 4.96738C20.5134 5.91793 20.9733 7.11379 20.9733 8.5549C20.9733 8.98419 20.9426 9.38283 20.8507 9.7201H14.3195ZM17.9377 7.54303C17.6924 6.65384 17.0791 6.22455 16.1592 6.22455C15.178 6.22455 14.5648 6.65384 14.2888 7.54303H17.9377ZM26.6152 6.83778H28.5776V3.80216H26.6152V1.1345L23.457 2.08505V3.83283H22.0465V6.86843H23.457V9.68939C23.457 11.1919 23.8249 12.2344 24.5915 12.817C25.358 13.3996 26.7072 13.5529 28.5776 13.3383V10.4866C27.1672 10.548 26.6152 10.4253 26.6152 9.59742V6.83778Z" fill="#FF0025"/>
</g>
<g clip-path="url(#clip1_1022_51311)">
<path fill-rule="evenodd" clip-rule="evenodd" d="M21.5172 9.41343C21.5172 10.5786 21.1186 11.5292 20.2907 12.2344C19.4628 12.9396 18.3897 13.3076 17.0405 13.3076H11.4292V0H16.6725C19.3402 0 21.0573 1.44115 21.0573 3.77152C21.0573 4.90604 20.628 5.76459 19.8308 6.40848C20.9653 7.08308 21.5172 8.06429 21.5172 9.41343ZM14.8328 3.03561V5.12068H16.5805C17.1938 5.12068 17.6537 4.75272 17.6537 4.07814C17.6537 3.46489 17.1938 3.03561 16.5805 3.03561H14.8328ZM16.9485 10.272C17.6231 10.272 18.1137 9.81207 18.1137 9.13747C18.1137 8.46293 17.6537 8.00298 16.9485 8.00298H14.8328V10.2414H16.9485V10.272ZM25.7487 9.7201C26.086 10.4867 26.7606 10.8853 27.8644 10.8853C28.539 10.8853 29.1216 10.6707 29.5815 10.2107L31.8506 11.8052C30.9307 12.9704 29.5509 13.5836 27.7724 13.5836C26.1473 13.5836 24.8594 13.1236 23.909 12.1731C22.9277 11.2226 22.4678 10.0267 22.4678 8.58555C22.4678 7.1751 22.9277 5.94859 23.8782 4.99804C24.8288 4.01683 26.0553 3.55689 27.4965 3.55689C28.9069 3.55689 30.0721 4.01683 31.0227 4.96738C31.9426 5.91793 32.4025 7.11379 32.4025 8.5549C32.4025 8.98419 32.3718 9.38283 32.2799 9.7201H25.7487ZM29.3669 7.54303C29.1216 6.65384 28.5083 6.22455 27.5884 6.22455C26.6072 6.22455 25.994 6.65384 25.718 7.54303H29.3669ZM38.0444 6.83778H40.0068V3.80216H38.0444V1.1345L34.8862 2.08505V3.83283H33.4757V6.86843H34.8862V9.68939C34.8862 11.1919 35.2541 12.2344 36.0207 12.817C36.7872 13.3996 38.1364 13.5529 40.0068 13.3383V10.4866C38.5964 10.548 38.0444 10.4253 38.0444 9.59742V6.83778Z" fill="#F8E800"/>
</g>
<defs>
<clipPath id="clip0_1022_51311">
<rect width="10.5709" height="13.5072" fill="white"/>
</clipPath>
<clipPath id="clip1_1022_51311">
<rect width="10.5709" height="13.5072" fill="white" transform="translate(11.4292)"/>
</clipPath>
</defs>
</svg>
