<svg width="268" height="26" viewBox="0 0 268 26" fill="none" xmlns="http://www.w3.org/2000/svg">
<g clip-path="url(#clip0_2287_21914)">
<path fill-rule="evenodd" clip-rule="evenodd" d="M14.8062 16.4018C14.8062 18.112 14.2212 19.5071 13.0061 20.5423C11.791 21.5773 10.2159 22.1174 8.2357 22.1174H0V2.58569H7.69566C11.6109 2.58569 14.1312 4.70087 14.1312 8.12116C14.1312 9.7863 13.5012 11.0464 12.331 11.9915C13.9962 12.9816 14.8062 14.4217 14.8062 16.4018ZM4.99542 7.04107V10.1013H7.56064C8.46072 10.1013 9.1358 9.56129 9.1358 8.5712C9.1358 7.67113 8.46072 7.04107 7.56064 7.04107H4.99542ZM8.10069 17.662C9.0908 17.662 9.81087 16.9869 9.81087 15.9968C9.81087 15.0068 9.1358 14.3317 8.10069 14.3317H4.99542V17.617H8.10069V17.662ZM21.0168 16.8519C21.5118 17.977 22.5019 18.5621 24.122 18.5621C25.1121 18.5621 25.9672 18.2471 26.6422 17.572L29.9725 19.9122C28.6225 21.6223 26.5973 22.5224 23.987 22.5224C21.6018 22.5224 19.7116 21.8473 18.3166 20.4523C16.8765 19.0571 16.2014 17.302 16.2014 15.1868C16.2014 13.1166 16.8765 11.3165 18.2715 9.92134C19.6666 8.48121 21.4668 7.80616 23.582 7.80616C25.6521 7.80616 27.3623 8.48121 28.7575 9.87633C30.1076 11.2715 30.7826 13.0266 30.7826 15.1418C30.7826 15.7718 30.7376 16.3569 30.6026 16.8519H21.0168ZM26.3272 13.6566C25.9672 12.3516 25.0671 11.7215 23.717 11.7215C22.2769 11.7215 21.3768 12.3516 20.9718 13.6566H26.3272ZM39.0632 12.6215H41.9435V8.16614H39.0632V4.25081L34.4279 5.64593V8.21115H32.3577V12.6665H34.4279V16.8069C34.4279 19.012 34.9679 20.5422 36.093 21.3973C37.2181 22.2523 39.1983 22.4774 41.9435 22.1624V17.9769C39.8734 18.067 39.0632 17.887 39.0632 16.6719V12.6215Z" fill="white"/>
<path fill-rule="evenodd" clip-rule="evenodd" d="M57.4699 20.5423C58.685 19.5071 59.27 18.112 59.27 16.4018C59.27 14.4217 58.46 12.9816 56.8398 11.9915C58.01 11.0464 58.64 9.7863 58.64 8.12116C58.64 4.70087 56.1197 2.58569 52.2045 2.58569H44.5088V22.1174H52.6995C54.6796 22.1174 56.2548 21.5773 57.4699 20.5423ZM49.5042 10.1013V7.04107H52.0694C52.9695 7.04107 53.6446 7.67113 53.6446 8.5712C53.6446 9.56129 52.9695 10.1013 52.0694 10.1013H49.5042ZM54.2746 15.9968C54.2746 16.9869 53.5545 17.662 52.5645 17.662V17.617H49.5042V14.3317H52.5645C53.5996 14.3317 54.2746 15.0068 54.2746 15.9968ZM60.7102 15.1418C60.7102 17.212 61.4302 18.9671 62.8704 20.4072C64.3105 21.8023 66.0656 22.5224 68.1358 22.5224C70.206 22.5224 71.9611 21.8473 73.4012 20.4072C74.8414 18.9671 75.5614 17.212 75.5614 15.1418C75.5614 13.0715 74.8414 11.3615 73.4012 9.92131C72.0061 8.48119 70.206 7.76112 68.1358 7.76112C66.0656 7.76112 64.3105 8.48119 62.8704 9.92131C61.4302 11.3615 60.7102 13.0715 60.7102 15.1418ZM68.1358 12.2615C69.8009 12.2615 70.9711 13.4316 70.9711 15.1418C70.9711 16.8519 69.8009 18.022 68.1358 18.022C66.5607 18.022 65.3455 16.8519 65.3455 15.1418C65.3455 13.4766 66.5607 12.2615 68.1358 12.2615ZM79.1618 20.4072C77.7216 18.9671 77.0016 17.212 77.0016 15.1418C77.0016 13.0715 77.7216 11.3615 79.1618 9.92131C80.6019 8.48119 82.357 7.76112 84.4273 7.76112C86.4976 7.76112 88.2974 8.48119 89.6929 9.92131C91.1332 11.3615 91.8529 13.0715 91.8529 15.1418C91.8529 17.212 91.1332 18.9671 89.6929 20.4072C88.2526 21.8473 86.4976 22.5224 84.4273 22.5224C82.357 22.5224 80.6019 21.8023 79.1618 20.4072ZM87.2174 15.1418C87.2174 13.4316 86.0474 12.2615 84.3823 12.2615C82.8071 12.2615 81.592 13.4766 81.592 15.1418C81.592 16.8519 82.8071 18.022 84.3823 18.022C86.0474 18.022 87.2174 16.8519 87.2174 15.1418ZM114.715 22.1174V13.5666C114.715 9.96631 112.689 7.76112 109.449 7.76112C107.694 7.76112 106.39 8.34617 105.399 9.56128C104.634 8.34617 103.419 7.76112 101.844 7.76112C100.178 7.76112 98.9182 8.34617 98.0632 9.47127V8.16616H93.4285V22.1174H98.0632V14.5117C98.0632 13.0715 98.7389 12.1715 99.9991 12.1715C101.169 12.1715 101.754 12.8016 101.754 14.1067V22.1174H106.39V14.5117C106.39 13.0715 107.064 12.1715 108.325 12.1715C109.449 12.1715 110.035 12.8016 110.035 14.1067V22.1174H114.715Z" fill="white"/>
</g>
<path d="M125.843 17.9292C126.189 17.6443 126.61 17.2414 127.107 16.7204C127.614 16.1913 128.138 15.6012 128.677 14.95L130.394 12.8865L128.677 10.7497C127.803 9.65895 126.923 8.71878 126.038 7.9292H129.115L131.884 11.6166L134.896 7.9292H137.649C137.358 8.2141 136.953 8.63738 136.434 9.19904C135.916 9.7607 135.484 10.2532 135.139 10.6765L133.26 12.9231L134.896 14.9744C135.382 15.5767 135.9 16.1547 136.451 16.7082C137.001 17.2536 137.466 17.6606 137.843 17.9292H134.783L131.771 14.2051L128.694 17.9292H125.843Z" fill="white"/>
<path d="M190.188 6.51319C182.531 6.43588 182.693 6.33373 182.665 6.70043C182.627 7.21155 183.595 6.82409 183.826 7.65037L183.827 7.65853C183.85 8.39304 183.793 17.7165 183.789 18.296C183.781 18.3548 183.715 18.7124 183.326 18.9252C183.213 18.987 183.157 19.1171 183.188 19.2415C183.22 19.3659 183.332 19.453 183.461 19.453H183.519C184.7 19.453 186.297 19.4873 187.202 19.6507C187.842 19.7661 188.468 19.8247 189.063 19.8247C189.064 19.8247 189.064 19.8247 189.064 19.8247C193.69 19.8247 196.128 16.2886 196.146 12.7959C196.161 9.79923 194.303 6.5549 190.188 6.51319ZM186.16 7.58141C194.315 7.05787 194.45 13.2239 193.222 16.2417C192.58 17.821 190.329 18.7649 188.524 18.7649C187.407 18.7647 186.592 18.4115 186.225 17.7695L186.16 7.58141Z" fill="white"/>
<path d="M200.956 13.0608C200.956 17.4605 204.557 19.7625 208.114 19.7625C211.563 19.7625 215.229 17.3027 215.229 12.7443C215.229 4.06123 200.956 3.83914 200.956 13.0608ZM203.512 13.0334C203.512 9.80739 204.441 7.2123 207.697 7.2123C210.251 7.2123 212.577 9.83798 212.577 12.7271C212.632 15.324 212.055 18.479 208.997 18.7738C205.834 18.7691 203.988 16.834 203.513 13.0387L203.512 13.0334Z" fill="white"/>
<path d="M231.496 6.3418C231.214 6.43152 230.873 6.49178 230.646 6.49178C230.413 6.49178 221.997 6.47973 221.491 6.47899C221.142 6.29638 220.6 6.07391 220.515 6.45785L220.166 8.04497C220.137 8.17734 220.207 8.31156 220.331 8.3644C220.456 8.41686 220.601 8.3733 220.675 8.26021C220.827 8.03052 221.056 7.85662 221.373 7.72907C222.188 7.69644 224.374 7.69273 224.855 7.69217L224.805 18.3751C224.804 18.3908 224.783 18.7607 224.438 18.9704C224.197 19.1176 224.301 19.4917 224.584 19.4917C224.586 19.4917 227.58 19.4781 227.583 19.4781C227.878 19.4768 227.971 19.0762 227.706 18.9452C227.461 18.8233 227.33 18.6396 227.309 18.4008C227.298 17.904 227.223 9.43725 227.208 7.6944L230.273 7.76708C230.3 7.76837 230.947 7.80508 231.176 8.4495C231.221 8.57649 231.35 8.65342 231.484 8.63303C231.779 8.58761 231.724 8.37589 231.764 7.05054C231.828 6.90557 231.881 6.70461 231.859 6.56612C231.832 6.39575 231.661 6.29026 231.496 6.3418Z" fill="white"/>
<path d="M248.697 15.5352C247.944 15.5233 246.372 15.5218 246.038 15.5216C246.027 15.495 242.272 6.20563 242.272 6.20563C242.17 5.96518 241.843 5.98668 241.753 6.20934L236.844 18.2812C236.842 18.2856 236.624 18.7217 236.092 18.9766C235.823 19.1056 235.916 19.5107 236.213 19.5112C236.228 19.5112 238.438 19.5148 238.438 19.5148C238.755 19.5148 238.827 19.072 238.532 18.9682C238.376 18.89 238.304 18.7801 238.348 18.6114C238.506 18.0696 238.926 16.8939 239.028 16.6108L243.925 16.6236L244.888 18.9046C244.892 18.9141 244.902 18.9567 244.87 19.0042C244.707 19.1827 244.831 19.4718 245.073 19.4753C245.093 19.4756 247.867 19.5148 247.867 19.5148C248.033 19.5148 248.152 19.3837 248.152 19.2337C248.152 19.1104 248.072 19.0055 247.962 18.9677C247.593 18.7901 247.439 18.6214 246.493 16.6149C247.329 16.6327 247.486 16.256 248.729 16.0951C248.875 16.0762 248.982 15.9475 248.974 15.8005C248.965 15.6535 248.845 15.5376 248.697 15.5352ZM241.547 10.0406L243.519 15.5042L239.409 15.5517L241.547 10.0406Z" fill="white"/>
<path d="M266.483 16.5551C266.212 17.1465 265.879 17.727 265.045 17.7607C264.61 17.7778 262.296 17.8694 260.843 17.8586C269.559 11.2111 267.238 6.2063 262.045 6.2063C260.906 6.2063 259.762 6.48049 258.906 6.95861C258.823 7.00478 258.769 7.08932 258.763 7.18349C258.741 7.48457 258.799 8.09283 258.935 8.99141C258.955 9.11859 259.058 9.21648 259.186 9.2289C259.313 9.24039 259.434 9.16494 259.478 9.04406C259.979 7.64733 260.985 7.14975 261.76 7.14975C262.869 7.14975 264.029 8.10154 264.099 9.92058C264.255 13.9688 259.324 17.7893 258.218 18.8415C258.031 19.0032 257.884 19.1736 258.039 19.3697C258.039 19.7229 258.486 19.7679 258.586 19.4797C259.535 19.4741 264.683 19.4444 265.636 19.4548C266.327 19.5049 266.669 19.1033 266.684 18.6543L267.016 16.7194C267.071 16.3962 266.618 16.2581 266.483 16.5551Z" fill="white"/>
<path d="M174.907 6.00511C174.806 1.19247 174.799 2.23275 174.898 0.7328C174.904 0.643872 174.837 0.567032 174.749 0.560955C167.621 0.0707727 167.35 0.0142534 166.798 0.0142534C157.074 0.0134693 162.179 -0.146288 149.2 0.623486C149.112 0.628779 149.044 0.704573 149.049 0.793175C149.885 16.9284 149.855 14.2963 149.427 25.05C149.424 25.1272 149.476 25.1957 149.551 25.2135C150.522 25.4444 150.35 25.3535 152.616 25.3552C152.62 25.3563 156.863 24.8905 156.867 24.8901C156.887 24.8934 162.734 25.8582 162.754 25.8582C162.759 25.8582 162.763 25.858 162.768 25.8576C169.62 25.2803 167.656 25.4198 172.077 25.1735L174.673 25.7013C174.774 25.7217 174.867 25.6433 174.866 25.5413C174.809 20.2867 174.907 6.00511 174.907 6.00511ZM164.369 5.62208C164.389 5.61738 164.416 5.61058 164.451 5.60137L166.298 5.18273C167.245 4.94431 167.385 4.88622 168.195 4.50339C168.569 4.63381 169.594 5.20423 169.854 5.53172C170.026 5.74852 170.014 5.79674 169.96 6.02889C169.95 6.07345 169.938 6.12475 169.925 6.18532C169.925 6.1893 169.924 6.19342 169.923 6.19747L169.517 9.39418C169.115 9.40907 169.081 9.3781 168.97 9.27519C168.924 9.23259 168.867 9.17966 168.767 9.11178C168.155 8.69922 166.154 7.21083 165.523 6.6985L164.281 5.69526L164.291 5.68553C164.304 5.67207 164.316 5.65397 164.324 5.63665C164.33 5.63175 164.355 5.62568 164.369 5.62208ZM167.249 21.7174C167.212 21.6808 151.722 5.17097 151.711 5.14817L153.064 4.10442L171.976 16.6943C171.819 17.1445 171.757 17.6612 171.663 18.0903C171.331 19.6058 170.904 20.2688 170.235 21.7087C169.279 21.7469 167.314 21.7395 167.249 21.7174ZM153.158 17.2506C153.332 16.8299 153.571 16.1531 153.772 15.8103C154.761 16.4317 158.626 20.3351 158.962 20.8621C158.775 20.9316 157.976 21.051 156.648 21.5845C155.806 21.9221 155.011 22.2423 154.244 21.9804C154.167 21.9545 153.963 21.7803 153.66 21.5177C153.108 21.0381 152.607 20.6925 152.316 20.5198C151.82 20.2252 151.897 20.2873 153.158 17.2506Z" fill="#EA473B"/>
<path d="M151.025 17.2849C150.904 10.9957 151.04 14.4216 150.321 0.557049L149.2 0.623486C149.112 0.628779 149.044 0.704573 149.049 0.793175L149.646 12.3053C149.764 18.4547 149.797 15.7598 149.427 25.05C149.424 25.1272 149.476 25.1957 149.551 25.2135C150.099 25.3439 150.327 25.3731 150.713 25.3731C150.701 25.3316 150.687 25.7901 151.025 17.2849Z" fill="#D82B27"/>
<path d="M159.766 21.2175C159.766 21.2175 160.422 20.9907 159.883 20.3961C157.683 17.9298 156.344 17.0363 155.07 15.6316C154.538 15.0524 153.772 15.8103 153.772 15.8103C158.749 20.2582 157.752 19.6143 158.63 20.466C158.746 20.579 158.838 20.6683 158.962 20.8621C158.939 20.8707 158.837 20.8964 158.696 20.9322C156.625 21.4575 156.315 21.8141 155.39 22.0134C156.253 22.7207 157.775 21.8577 158.859 21.4822C159.119 21.3925 159.462 21.2973 159.766 21.2175Z" fill="#D82B27"/>
<path d="M172.917 15.3848C172.917 15.3847 154.837 3.79257 154.837 3.79257C154.231 3.40425 153.578 3.59111 153.064 4.10442L171.976 16.6943C171.819 17.1445 171.757 17.6612 171.663 18.0903C171.331 19.6058 170.904 20.2688 170.235 21.7087C170.235 21.7087 171.948 22.0397 172.47 20.8743C173.696 18.2526 173.413 17.7581 173.705 16.9303C173.67 16.4634 173.735 15.9089 172.917 15.3848Z" fill="#D82B27"/>
<path d="M169.925 6.18532C169.925 6.1893 169.924 6.19342 169.923 6.19747L169.517 9.39418C169.517 9.39418 171.125 10.3925 171.327 8.75111C171.327 8.75059 171.327 8.75007 171.327 8.74954L171.659 6.04714C171.66 6.04302 171.661 6.03884 171.662 6.03472C171.674 5.97278 171.687 5.92038 171.697 5.87483C171.752 5.63752 171.764 5.58819 171.588 5.36655C171.404 5.13394 170.577 4.52 169.96 4.12188C169.379 3.72984 168.688 4.20127 168.688 4.20127C168.516 4.33411 168.362 4.45014 168.195 4.50339C168.617 4.73306 169.687 5.32184 169.854 5.53172C170.026 5.74852 170.014 5.79674 169.96 6.02889C169.95 6.07345 169.938 6.12475 169.925 6.18532Z" fill="#D82B27"/>
<defs>
<clipPath id="clip0_2287_21914">
<rect width="114.638" height="20.6866" fill="white" transform="translate(0 2.58569)"/>
</clipPath>
</defs>
</svg>
