<svg width="8" height="8" viewBox="0 0 8 8" fill="none" xmlns="http://www.w3.org/2000/svg">
<path d="M5.60102 3.99435L8 6.39321L6.39304 8L3.99434 5.60113L1.59536 8L0 6.40453L2.3987 3.99435L0 1.59547L1.59536 0L3.99434 2.39887L6.39304 0L8 1.59547L5.60102 3.99435Z" fill="#AE9E45"/>
<path d="M5.60102 3.99435L8 6.39321L6.39304 8L3.99434 5.60113L1.59536 8L0 6.40453L2.3987 3.99435L0 1.59547L1.59536 0L3.99434 2.39887L6.39304 0L8 1.59547L5.60102 3.99435Z" fill="#AE9E45"/>
<path d="M5.60102 3.99435L8 6.39321L6.39304 8L3.99434 5.60113L1.59536 8L0 6.40453L2.3987 3.99435L0 1.59547L1.59536 0L3.99434 2.39887L6.39304 0L8 1.59547L5.60102 3.99435Z" fill="url(#paint0_linear_836_35344)"/>
<path d="M5.60102 3.99435L8 6.39321L6.39304 8L3.99434 5.60113L1.59536 8L0 6.40453L2.3987 3.99435L0 1.59547L1.59536 0L3.99434 2.39887L6.39304 0L8 1.59547L5.60102 3.99435Z" fill="url(#paint1_linear_836_35344)"/>
<defs>
<linearGradient id="paint0_linear_836_35344" x1="-1.1768" y1="-1.1768" x2="6.1669" y2="6.1669" gradientUnits="userSpaceOnUse">
<stop stop-color="#D6BF4C"/>
<stop offset="1" stop-color="#D6BF4C" stop-opacity="0"/>
</linearGradient>
<linearGradient id="paint1_linear_836_35344" x1="-1.1768" y1="-1.1768" x2="6.1669" y2="6.1669" gradientUnits="userSpaceOnUse">
<stop stop-color="#D6BF4C"/>
<stop offset="1" stop-color="#D6BF4C" stop-opacity="0"/>
</linearGradient>
</defs>
</svg>
