<svg width="61" height="83" viewBox="0 0 61 83" fill="none" xmlns="http://www.w3.org/2000/svg">
<g filter="url(#filter0_f_1390_61110)">
<path d="M45.7888 57.9961C44.6516 62.2401 42.3557 65.3802 38.9011 67.4165C35.4596 69.4034 31.3961 70.06 26.7106 69.3863L24.9652 75.9004L20.0056 74.5715L21.7312 68.1315C17.6653 66.7246 14.4229 64.6129 12.0041 61.7962C9.58535 58.9796 8.19723 55.6721 7.83977 51.8739L18.0171 49.1266C18.5252 53.547 20.6624 56.5262 24.4287 58.0643L27.8601 45.2584L27.786 45.2385L27.6578 45.1248C24.9385 43.2326 22.5928 41.2288 20.6207 39.1137C17.2978 35.5258 16.2222 30.9534 17.3939 25.3964C18.5707 21.0043 20.9094 17.9021 24.4098 16.0897C28.0848 14.2182 31.9919 13.6519 36.131 14.3908L37.8566 7.95077L42.8161 9.27967L41.0509 15.8677C47.5375 18.505 51.3428 23.2534 52.4666 30.1132L42.5312 32.8459C42.1402 29.5677 40.7476 27.264 38.3534 25.9348L35.0411 38.2967C39.3122 41.5039 42.0064 43.7861 43.1237 45.1433C46.1831 48.925 47.0714 53.2093 45.7888 57.9961ZM27.5152 28.1877C27.2243 29.2734 27.3119 30.3282 27.778 31.3523C28.2573 32.327 29.2235 33.4586 30.6765 34.7471L33.4534 24.3839C30.2351 24.1562 28.2557 25.4242 27.5152 28.1877ZM32.2841 48.5859L29.4279 59.2452C32.7581 59.4499 34.8001 58.1459 35.5538 55.333C36.1488 53.1123 35.0589 50.8633 32.2841 48.5859Z" fill="url(#paint0_radial_1390_61110)"/>
</g>
<defs>
<filter id="filter0_f_1390_61110" x="0.294747" y="0.703194" width="60.1597" height="81.8894" filterUnits="userSpaceOnUse" color-interpolation-filters="sRGB">
<feFlood flood-opacity="0" result="BackgroundImageFix"/>
<feBlend mode="normal" in="SourceGraphic" in2="BackgroundImageFix" result="shape"/>
<feGaussianBlur stdDeviation="1.3428" result="effect1_foregroundBlur_1390_61110"/>
</filter>
<radialGradient id="paint0_radial_1390_61110" cx="0" cy="0" r="1" gradientUnits="userSpaceOnUse" gradientTransform="translate(28.7319 47.7528) rotate(105) scale(38.5 21.5)">
<stop offset="0.401042" stop-color="#697980"/>
<stop offset="1" stop-color="#4F5B60"/>
</radialGradient>
</defs>
</svg>
