<svg width="148" height="64" viewBox="0 0 148 64" fill="none" xmlns="http://www.w3.org/2000/svg">
<path d="M66.5835 0.000306901H0.46512C0.390653 0.000440701 0.317298 0.0202286 0.251207 0.0580042C0.185116 0.0957798 0.128216 0.150433 0.0852715 0.217408C0.0423273 0.284384 0.0145924 0.361711 0.00439185 0.442919C-0.00580874 0.524127 0.00182071 0.606851 0.0266433 0.684143L17.0632 52.2137C17.0957 52.3125 17.1554 52.3977 17.234 52.4572C17.3127 52.5168 17.4063 52.5477 17.5017 52.5456H83.6201C83.6946 52.5462 83.768 52.5268 83.8341 52.489C83.9001 52.4512 83.9568 52.3961 83.9991 52.3287C84.0414 52.2613 84.0681 52.1835 84.0769 52.1021C84.0857 52.0208 84.0763 51.9382 84.0495 51.8618L67.0129 0.342256C66.9813 0.243991 66.9234 0.158616 66.8467 0.097533C66.77 0.0364496 66.6782 0.00252888 66.5835 0.000306901Z" fill="url(#paint0_linear_704_13536)"/>
<path d="M66.5835 0.000306901H0.46512C0.390653 0.000440701 0.317298 0.0202286 0.251207 0.0580042C0.185116 0.0957798 0.128216 0.150433 0.0852715 0.217408C0.0423273 0.284384 0.0145924 0.361711 0.00439185 0.442919C-0.00580874 0.524127 0.00182071 0.606851 0.0266433 0.684143L17.0632 52.2137C17.0957 52.3125 17.1554 52.3977 17.234 52.4572C17.3127 52.5168 17.4063 52.5477 17.5017 52.5456H83.6201C83.6946 52.5462 83.768 52.5268 83.8341 52.489C83.9001 52.4512 83.9568 52.3961 83.9991 52.3287C84.0414 52.2613 84.0681 52.1835 84.0769 52.1021C84.0857 52.0208 84.0763 51.9382 84.0495 51.8618L67.0129 0.342256C66.9813 0.243991 66.9234 0.158616 66.8467 0.097533C66.77 0.0364496 66.6782 0.00252888 66.5835 0.000306901Z" fill="url(#paint1_linear_704_13536)"/>
<path d="M81.4099 0.000306901H147.519C147.594 0.000440701 147.667 0.0202286 147.733 0.0580042C147.799 0.0957798 147.856 0.150433 147.899 0.217408C147.942 0.284384 147.97 0.361711 147.98 0.442919C147.99 0.524127 147.983 0.606851 147.958 0.684143L130.921 52.2137C130.889 52.3109 130.831 52.395 130.754 52.4543C130.677 52.5137 130.586 52.5456 130.492 52.5456H64.3733C64.2989 52.5455 64.2255 52.5257 64.1594 52.4879C64.0933 52.4501 64.0364 52.3955 63.9935 52.3285C63.9505 52.2615 63.9228 52.1842 63.9126 52.103C63.9024 52.0218 63.91 51.9391 63.9348 51.8618L80.9714 0.342255C81.0035 0.242395 81.0629 0.155871 81.1414 0.0946481C81.2199 0.0334254 81.3137 0.00047987 81.4099 0.000306901Z" fill="url(#paint2_linear_704_13536)"/>
<path d="M81.4099 0.000306901H147.519C147.594 0.000440701 147.667 0.0202286 147.733 0.0580042C147.799 0.0957798 147.856 0.150433 147.899 0.217408C147.942 0.284384 147.97 0.361711 147.98 0.442919C147.99 0.524127 147.983 0.606851 147.958 0.684143L130.921 52.2137C130.889 52.3109 130.831 52.395 130.754 52.4543C130.677 52.5137 130.586 52.5456 130.492 52.5456H64.3733C64.2989 52.5455 64.2255 52.5257 64.1594 52.4879C64.0933 52.4501 64.0364 52.3955 63.9935 52.3285C63.9505 52.2615 63.9228 52.1842 63.9126 52.103C63.9024 52.0218 63.91 51.9391 63.9348 51.8618L80.9714 0.342255C81.0035 0.242395 81.0629 0.155871 81.1414 0.0946481C81.2199 0.0334254 81.3137 0.00047987 81.4099 0.000306901Z" fill="url(#paint3_linear_704_13536)"/>
<path d="M147.519 0.000279368H145.857L129.414 49.8303C129.382 49.9275 129.324 50.0115 129.247 50.0709C129.17 50.1303 129.078 50.1622 128.984 50.1622H64.5012L63.9348 51.8618C63.91 51.939 63.9024 52.0218 63.9126 52.103C63.9228 52.1842 63.9505 52.2615 63.9935 52.3285C64.0364 52.3955 64.0933 52.4501 64.1594 52.4879C64.2255 52.5257 64.2989 52.5455 64.3733 52.5456H130.492C130.586 52.5455 130.677 52.5137 130.754 52.4543C130.831 52.3949 130.889 52.3109 130.921 52.2137L147.967 0.704248C147.996 0.625083 148.006 0.539202 147.997 0.454431C147.989 0.36966 147.961 0.288695 147.916 0.218793C147.872 0.14889 147.812 0.0922604 147.743 0.0541097C147.674 0.015959 147.597 -0.0025356 147.519 0.000279368Z" fill="url(#paint4_linear_704_13536)"/>
<path d="M0.656599 0.000290184H2.31915L18.762 49.8303C18.7944 49.9291 18.8541 50.0143 18.9328 50.0738C19.0114 50.1333 19.105 50.1643 19.2005 50.1622H83.6563L84.2136 51.8618C84.2404 51.9382 84.2498 52.0207 84.241 52.1021C84.2322 52.1835 84.2055 52.2613 84.1632 52.3287C84.1208 52.3961 84.0642 52.4511 83.9981 52.4889C83.9321 52.5268 83.8587 52.5462 83.7842 52.5456H17.6932C17.5978 52.5477 17.5042 52.5167 17.4255 52.4572C17.3469 52.3977 17.2871 52.3125 17.2547 52.2137L0.218124 0.704259C0.18954 0.625895 0.178975 0.540959 0.187366 0.45702C0.195758 0.373081 0.222845 0.292745 0.266225 0.2231C0.309605 0.153455 0.367935 0.0966685 0.436036 0.0578034C0.504136 0.0189383 0.579899 -0.000824412 0.656599 0.000290184Z" fill="url(#paint5_linear_704_13536)"/>
<path d="M41.4814 63.9899H106.696C106.798 63.9892 106.897 63.9514 106.978 63.8823C107.059 63.8132 107.117 63.7168 107.143 63.6078L122.307 0.643917C122.327 0.568157 122.331 0.488253 122.318 0.410673C122.304 0.333093 122.275 0.260042 122.231 0.197377C122.188 0.134712 122.131 0.0841747 122.067 0.0499419C122.002 0.015709 121.931 -0.00129772 121.859 0.000285355H26.3175C26.2464 0.000768611 26.1764 0.0191397 26.1128 0.053993C26.0492 0.0888463 25.9937 0.139253 25.9505 0.201367C25.9073 0.26348 25.8775 0.33569 25.8636 0.412391C25.8496 0.489093 25.8518 0.568274 25.8699 0.643917L41.0338 63.6078C41.0599 63.7168 41.1179 63.8132 41.1988 63.8823C41.2797 63.9514 41.379 63.9892 41.4814 63.9899Z" fill="url(#paint6_linear_704_13536)"/>
<path d="M26.3171 0.000306901H28.8018C28.7645 0.0578287 28.7394 0.123854 28.7283 0.19347C28.7172 0.263086 28.7205 0.334544 28.7378 0.402592L28.8018 0.643939H28.5917C28.5236 0.641548 28.4559 0.656667 28.3941 0.688071C28.3322 0.719475 28.2778 0.766267 28.2353 0.824826C28.1927 0.883385 28.1632 0.952084 28.1489 1.02542C28.1347 1.09875 28.1361 1.1747 28.1532 1.24731L43.0157 61.0434C43.042 61.1487 43.0993 61.2414 43.1787 61.307C43.2581 61.3725 43.3549 61.4071 43.4541 61.4054H104.731C104.829 61.4066 104.925 61.3716 105.002 61.306C105.08 61.2403 105.136 61.1479 105.16 61.0434L120.023 1.25737C120.04 1.18561 120.041 1.11055 120.028 1.038C120.014 0.965446 119.985 0.897353 119.944 0.839005C119.902 0.780656 119.849 0.733598 119.788 0.701513C119.727 0.669429 119.661 0.653195 119.594 0.654005H119.374L119.438 0.412659C119.456 0.344611 119.459 0.273152 119.448 0.203536C119.437 0.133921 119.412 0.067895 119.374 0.0103732H121.859C121.931 0.00879016 122.002 0.0257969 122.066 0.0600298C122.131 0.0942626 122.187 0.144739 122.231 0.207403C122.274 0.270068 122.304 0.343181 122.317 0.420761C122.33 0.49834 122.327 0.578244 122.307 0.654005L107.143 63.6179C107.117 63.7268 107.059 63.8233 106.978 63.8924C106.897 63.9615 106.797 63.9993 106.695 64H41.481C41.3786 63.9993 41.2793 63.9615 41.1984 63.8924C41.1175 63.8233 41.0595 63.7268 41.0334 63.6179L25.8695 0.654005C25.8497 0.577713 25.8462 0.497412 25.8594 0.41941C25.8726 0.341408 25.902 0.267812 25.9454 0.204457C25.9888 0.141102 26.045 0.0896833 26.1094 0.05426C26.1739 0.0188368 26.245 0.000370365 26.3171 0.000306901Z" fill="url(#paint7_linear_704_13536)"/>
<defs>
<linearGradient id="paint0_linear_704_13536" x1="20.8999" y1="82.0514" x2="43.6016" y2="32.6385" gradientUnits="userSpaceOnUse">
<stop stop-color="#2C292E"/>
<stop offset="1" stop-color="#191A1E"/>
</linearGradient>
<linearGradient id="paint1_linear_704_13536" x1="12.3496" y1="37.6318" x2="41.4814" y2="28.439" gradientUnits="userSpaceOnUse">
<stop stop-color="#2C292E" stop-opacity="0"/>
<stop offset="1"/>
</linearGradient>
<linearGradient id="paint2_linear_704_13536" x1="133.863" y1="81.8704" x2="100.816" y2="27.5742" gradientUnits="userSpaceOnUse">
<stop stop-color="#2C292E"/>
<stop offset="1" stop-color="#191A1E"/>
</linearGradient>
<linearGradient id="paint3_linear_704_13536" x1="135.644" y1="37.6318" x2="106.512" y2="28.439" gradientUnits="userSpaceOnUse">
<stop stop-color="#2C292E" stop-opacity="0"/>
<stop offset="1"/>
</linearGradient>
<linearGradient id="paint4_linear_704_13536" x1="119.703" y1="85.2092" x2="106.852" y2="39.7667" gradientUnits="userSpaceOnUse">
<stop stop-color="#525257"/>
<stop offset="1" stop-color="#2F3438" stop-opacity="0"/>
</linearGradient>
<linearGradient id="paint5_linear_704_13536" x1="28.4724" y1="85.2092" x2="41.3341" y2="39.7676" gradientUnits="userSpaceOnUse">
<stop stop-color="#525257"/>
<stop offset="1" stop-color="#2F3438" stop-opacity="0"/>
</linearGradient>
<linearGradient id="paint6_linear_704_13536" x1="82.488" y1="70.7278" x2="74.0712" y2="12.6802" gradientUnits="userSpaceOnUse">
<stop stop-color="#2C292E"/>
<stop offset="1" stop-color="#191A1E"/>
</linearGradient>
<linearGradient id="paint7_linear_704_13536" x1="74.0926" y1="78.0389" x2="74.0926" y2="28.4603" gradientUnits="userSpaceOnUse">
<stop stop-color="#525257"/>
<stop offset="1" stop-color="#2F3438" stop-opacity="0"/>
</linearGradient>
</defs>
</svg>
