<svg width="18" height="18" viewBox="0 0 18 18" fill="none" xmlns="http://www.w3.org/2000/svg">
<path d="M12.9998 4L11.5898 5.40999L14.1699 7.99001H5.91992V9.99001H14.1699L11.5398 12.62L12.96 14.03L17.9998 9.00002L12.9998 4Z" fill="#613032"/>
<path d="M2 2H9V0H2H0V2V16V18H2H9V16H2V2Z" fill="#613032"/>
<path d="M12.9998 4L11.5898 5.40999L14.1699 7.99001H5.91992V9.99001H14.1699L11.5398 12.62L12.96 14.03L17.9998 9.00002L12.9998 4Z" fill="url(#paint0_linear_704_13689)"/>
<path d="M2 2H9V0H2H0V2V16V18H2H9V16H2V2Z" fill="url(#paint1_linear_704_13689)"/>
<defs>
<linearGradient id="paint0_linear_704_13689" x1="18.4197" y1="16.42" x2="1.81971" y2="-1.36976" gradientUnits="userSpaceOnUse">
<stop stop-color="#72322D" stop-opacity="0"/>
<stop offset="1" stop-color="#72322D"/>
</linearGradient>
<linearGradient id="paint1_linear_704_13689" x1="14.68" y1="19.9" x2="-1.92002" y2="2.12002" gradientUnits="userSpaceOnUse">
<stop stop-color="#72322D" stop-opacity="0"/>
<stop offset="1" stop-color="#72322D"/>
</linearGradient>
</defs>
</svg>
