<svg width="19" height="20" viewBox="0 0 19 20" fill="none" xmlns="http://www.w3.org/2000/svg">
<path d="M9 0.5C9.39782 0.5 9.77936 0.658035 10.0607 0.93934C10.342 1.22064 10.5 1.60218 10.5 2C10.5 2.39782 10.342 2.77936 10.0607 3.06066C9.77936 3.34196 9.39782 3.5 9 3.5H4C3.86739 3.5 3.74021 3.55268 3.64645 3.64645C3.55268 3.74021 3.5 3.86739 3.5 4V16C3.5 16.1326 3.55268 16.2598 3.64645 16.3536C3.74021 16.4473 3.86739 16.5 4 16.5H8.5C8.89782 16.5 9.27936 16.658 9.56066 16.9393C9.84196 17.2206 10 17.6022 10 18C10 18.3978 9.84196 18.7794 9.56066 19.0607C9.27936 19.342 8.89782 19.5 8.5 19.5H4C3.07174 19.5 2.1815 19.1313 1.52513 18.4749C0.868749 17.8185 0.5 16.9283 0.5 16V4C0.5 3.07174 0.868749 2.1815 1.52513 1.52513C2.1815 0.868749 3.07174 0.5 4 0.5H9ZM15.06 6.11L17.889 8.94C18.1699 9.22125 18.3277 9.6025 18.3277 10C18.3277 10.3975 18.1699 10.7787 17.889 11.06L15.061 13.89C14.7796 14.1714 14.398 14.3295 14 14.3295C13.602 14.3295 13.2204 14.1714 12.939 13.89C12.6576 13.6086 12.4995 13.227 12.4995 12.829C12.4995 12.431 12.6576 12.0494 12.939 11.768L13.207 11.5H9C8.60218 11.5 8.22064 11.342 7.93934 11.0607C7.65804 10.7794 7.5 10.3978 7.5 10C7.5 9.60218 7.65804 9.22064 7.93934 8.93934C8.22064 8.65804 8.60218 8.5 9 8.5H13.207L12.939 8.232C12.7997 8.09267 12.6893 7.92727 12.6139 7.74525C12.5386 7.56323 12.4998 7.36815 12.4999 7.17115C12.4999 6.97415 12.5388 6.77909 12.6142 6.5971C12.6896 6.41511 12.8002 6.24977 12.9395 6.1105C13.0788 5.97123 13.2442 5.86077 13.4263 5.78543C13.6083 5.71008 13.8034 5.67133 14.0004 5.67137C14.1974 5.67142 14.3924 5.71027 14.5744 5.7857C14.7564 5.86113 14.9217 5.97167 15.061 6.111L15.06 6.11Z" fill="url(#paint0_linear_25_22209)"/>
<defs>
<linearGradient id="paint0_linear_25_22209" x1="9.41384" y1="0.5" x2="9.41384" y2="19.5" gradientUnits="userSpaceOnUse">
<stop stop-color="#FD3A3A"/>
<stop offset="1" stop-color="#A61930"/>
</linearGradient>
</defs>
</svg>
