<svg width="341" height="220" viewBox="0 0 341 220" fill="none" xmlns="http://www.w3.org/2000/svg">
<path d="M8.57179 4.31504H40.6078C51.3989 4.31504 60.4664 8.09941 67.8103 15.6682C75.1543 23.2369 78.8262 32.5667 78.8262 43.6575C78.8262 54.8233 75.1543 64.1905 67.8103 71.7593C60.5413 79.2531 51.4738 83 40.6078 83H8.57179V4.31504ZM29.2547 63.5536H40.6078C46.0034 63.5536 50.4622 61.7551 53.9843 58.158C57.4314 54.4861 59.155 49.6526 59.155 43.6575C59.155 37.5875 57.4314 32.7915 53.9843 29.2694C50.5371 25.5974 46.0783 23.7615 40.6078 23.7615H29.2547V63.5536Z" fill="white"/>
<path d="M163.228 72.8834C155.21 80.7519 145.468 84.6861 134.003 84.6861C122.387 84.6861 112.608 80.7519 104.664 72.8834C96.7209 64.9399 92.7492 55.198 92.7492 43.6575C92.7492 32.1171 96.7209 22.4126 104.664 14.5441C112.608 6.60065 122.387 2.62893 134.003 2.62893C145.543 2.62893 155.285 6.60065 163.228 14.5441C171.247 22.4126 175.256 32.1171 175.256 43.6575C175.256 55.123 171.247 64.865 163.228 72.8834ZM118.828 59.0573C122.949 63.029 128.008 65.0149 134.003 65.0149C139.998 65.0149 145.056 63.029 149.178 59.0573C153.224 55.0106 155.248 49.8774 155.248 43.6575C155.248 37.3627 153.224 32.2669 149.178 28.3702C145.131 24.3235 140.073 22.3002 134.003 22.3002C127.933 22.3002 122.874 24.3235 118.828 28.3702C114.781 32.2669 112.758 37.3627 112.758 43.6575C112.758 49.8774 114.781 55.0106 118.828 59.0573Z" fill="white"/>
<path d="M187.628 4.31504H246.642V23.7615H227.196V83H207.075V23.7615H187.628V4.31504Z" fill="white"/>
<path d="M330.211 83H308.517L305.144 71.6469H278.953L275.581 83H253.774L279.74 4.31504H304.245L330.211 83ZM291.993 27.5833L284.124 54.3362H299.974L291.993 27.5833Z" fill="white"/>
<path d="M53.8447 149.037C57.5166 150.836 60.4017 153.346 62.5 156.568C64.5983 159.791 65.6474 163.463 65.6474 167.584C65.6474 173.879 63.4367 179.162 59.0154 183.434C54.594 187.705 49.1985 189.841 42.8288 189.841H8.88183V111.156H40.3558C46.5757 111.156 51.7839 113.217 55.9804 117.338C60.2519 121.46 62.3876 126.556 62.3876 132.626C62.3876 139.67 59.54 145.14 53.8447 149.037ZM40.3558 120.935H19.3357V144.99H40.3558C43.6531 144.99 46.4258 143.829 48.6739 141.506C50.9221 139.183 52.0461 136.335 52.0461 132.963C52.0461 129.666 50.8846 126.855 48.5615 124.532C46.3134 122.134 43.5781 120.935 40.3558 120.935ZM19.3357 180.061H42.8288C46.3509 180.061 49.3109 178.825 51.7089 176.352C54.1069 173.879 55.306 170.844 55.306 167.247C55.306 163.725 54.0695 160.727 51.5965 158.254C49.2734 155.781 46.3509 154.545 42.8288 154.545H19.3357V180.061ZM73.8795 150.498C73.8795 139.108 77.8137 129.478 85.6822 121.61C93.5507 113.666 103.18 109.695 114.571 109.695C125.961 109.695 135.591 113.666 143.459 121.61C151.403 129.478 155.375 139.108 155.375 150.498C155.375 161.814 151.403 171.444 143.459 179.387C135.591 187.33 125.961 191.302 114.571 191.302C103.18 191.302 93.5507 187.33 85.6822 179.387C77.8137 171.369 73.8795 161.739 73.8795 150.498ZM144.921 150.498C144.921 141.806 141.998 134.537 136.153 128.691C130.458 122.771 123.264 119.811 114.571 119.811C105.953 119.811 98.7214 122.771 92.8763 128.691C87.106 134.611 84.2209 141.88 84.2209 150.498C84.2209 159.041 87.106 166.31 92.8763 172.305C98.7214 178.15 105.953 181.073 114.571 181.073C123.264 181.073 130.458 178.15 136.153 172.305C141.998 166.31 144.921 159.041 144.921 150.498Z" fill="white"/>
<path d="M319.3 111.156H331.103V189.841H320.762V128.354L295.02 171.181H293.672L267.93 128.467V189.841H257.476V111.156H269.279L294.346 152.746L319.3 111.156Z" fill="white"/>
<path d="M237.462 110.661C229.535 114.184 225.261 120.462 223.282 128.47C230.271 124.453 235.26 118.74 237.462 110.661ZM177.864 111.159C180.443 116.883 184.783 121.496 190.566 125.218C190.827 120.036 190.247 115.328 188.723 111.159H177.864V111.159ZM214.998 112.738C210.433 122.221 206.719 131.867 203.725 141.651C201.56 134.97 198.858 128.398 195.549 121.948C195.59 127.999 196.133 133.887 197.117 139.631C190.652 133.767 183.842 128.193 176.649 122.943C181.616 130.226 186.981 137.049 192.692 143.472C188.293 142.106 183.244 141.787 178.07 142.481C181.331 144.964 185.159 147.155 189.225 148.457C181.186 148.915 173.114 149.756 165.005 151.022C171.896 152.324 178.759 153.242 185.598 153.818C181.898 155.31 178.268 156.969 174.718 158.79C181.46 158.744 187.999 158.076 194.363 156.868C191.584 160.476 189.109 164.365 186.894 168.493C191.166 165.983 195.191 163.201 198.939 160.113C196.863 169.783 195.401 179.571 194.441 189.455C198.035 181.056 201.255 172.522 204.05 163.834C205.923 168.495 208.067 173.068 210.45 177.563C210.039 171.364 209.288 165.234 208.161 159.18C215.935 166.332 224.181 172.939 232.809 179.104C226.36 170.493 219.489 162.238 212.126 154.395C222.946 153.98 233.71 152.808 244.429 151.022C236.543 149.89 228.631 149.062 220.69 148.569C223.946 147.135 227.158 145.571 230.332 143.888C224.262 144.291 218.257 145.018 212.325 146.106C214.376 143.351 216.246 140.464 217.922 137.465C215.203 138.797 212.578 140.315 210.067 142.008C212.263 132.451 213.928 122.703 214.998 112.738L214.998 112.738ZM244.059 117.656C235.966 122.172 229.251 129.124 224.148 138.964C231.839 138.798 238.414 136.821 244.059 133.375V117.656H244.059ZM166.21 128.698C165.997 128.696 165.782 128.697 165.566 128.701C169.572 134.614 174.935 137.854 182.458 136.841C178.381 131.164 172.83 128.748 166.21 128.698ZM228.313 158.501C226.566 158.496 224.756 158.677 222.891 159.024C228.69 165.077 235.681 168.033 244.333 166.669C240.003 160.917 234.555 158.519 228.313 158.501H228.313ZM180.888 162.224C179.559 162.225 178.258 162.316 176.991 162.443C172.769 162.87 168.858 164.035 165.26 165.94V177.671C171.6 174.398 177.303 169.399 182.227 162.255C181.778 162.234 181.331 162.224 180.888 162.224V162.224ZM190.472 170.501C182.095 174.344 178.696 181.149 178.424 189.816C185.576 185.443 189.957 179.245 190.472 170.501ZM216.646 173.114C216.785 179.519 218.43 184.994 221.3 189.694H234.39C230.629 182.955 224.84 177.364 216.646 173.114L216.646 173.114Z" fill="white"/>
</svg>
