<svg width="80" height="80" viewBox="0 0 80 80" fill="none" xmlns="http://www.w3.org/2000/svg">
<g clip-path="url(#clip0_1473_75254)">
<path d="M80 0H-7.62939e-06V80H80V0Z" fill="url(#paint0_linear_1473_75254)"/>
<path opacity="0.5" d="M79.01 0H0.999992V78H79.01V0Z" fill="black"/>
<path opacity="0.48" d="M1.16991 0.314542L5.86736 0.22998H74.1025C74.1025 0.22998 78.7999 0.229984 78.7999 0.314542V77.816L74.1025 77.91H5.89552C5.83915 77.91 1.19807 77.863 1.19807 77.816L1.16991 0.314542Z" fill="#010101"/>
<path opacity="0.47" d="M1.32758 0.638055C1.32758 0.534731 5.87397 0.450195 6.02426 0.450195H74.0133C74.1073 0.450195 78.71 0.534731 78.71 0.638055V77.6617C78.71 77.7557 74.1542 77.8402 74.0133 77.8402H5.98671C5.88338 77.8402 1.29003 77.7557 1.29003 77.6617L1.32758 0.638055Z" fill="#020202"/>
<path opacity="0.45" d="M1.48974 0.952005C3.01152 0.781949 4.54106 0.691058 6.07227 0.679688H73.9283C75.4658 0.691066 77.0017 0.781956 78.5297 0.952005V77.4374C77.0048 77.6074 75.4721 77.6983 73.9377 77.7097H6.08167C4.54733 77.6983 3.01466 77.6074 1.48974 77.4374V0.952005Z" fill="#020303"/>
<path opacity="0.44" d="M1.64989 1.26691C1.64989 1.06976 5.96845 0.910156 6.17499 0.910156H73.8354C74.0326 0.910156 78.3699 1.06976 78.3699 1.26691V77.254C78.3699 77.4512 74.042 77.6202 73.8448 77.6202H6.18439C5.97785 77.6202 1.64989 77.4512 1.64989 77.254V1.26691Z" fill="#030304"/>
<path opacity="0.42" d="M1.81005 1.58978C1.81005 1.33637 6.02422 1.12988 6.26825 1.12988H73.7419C73.9859 1.12988 78.2001 1.33637 78.2001 1.58978V77.06C78.2001 77.3134 73.9953 77.5199 73.7419 77.5199H6.27764C6.02423 77.5199 1.81005 77.3134 1.81005 77.06V1.58978Z" fill="#040405"/>
<path opacity="0.4" d="M1.97021 1.90457C1.97021 1.60431 6.07069 1.36035 6.37095 1.36035H73.6395C73.9397 1.36035 78.0402 1.60431 78.0402 1.90457V76.8761C78.0402 77.1764 73.9491 77.4203 73.6489 77.4203H6.41786C6.11759 77.4203 2.01711 77.1764 2.01711 76.8761L1.97021 1.90457Z" fill="#050506"/>
<path opacity="0.39" d="M2.12988 2.21797C2.12988 1.87088 6.11671 1.58008 6.4638 1.58008H73.5459C73.893 1.58008 77.8799 1.87088 77.8799 2.21797V76.6916C77.8799 77.0387 73.9024 77.3201 73.5553 77.3201H6.47319C6.11672 77.3201 2.12988 77.0387 2.12988 76.6916V2.21797Z" fill="#060607"/>
<path opacity="0.37" d="M2.30029 2.53218C2.30029 2.13829 6.16411 1.81006 6.558 1.81006H73.4438C73.847 1.81006 77.7203 2.13829 77.7203 2.53218V76.4986C77.7203 76.9018 73.8564 77.2301 73.4532 77.2301H6.56738C6.16412 77.2301 2.30029 76.9018 2.30029 76.4986V2.53218Z" fill="#060708"/>
<path opacity="0.35" d="M2.45995 2.85534C2.45995 2.39593 6.21025 2.03027 6.66028 2.03027H73.3502C73.8003 2.03027 77.5599 2.39593 77.5599 2.85534V76.3146C77.5599 76.7646 73.8096 77.1303 73.3596 77.1303H6.66967C6.21026 77.1303 2.45995 76.7646 2.45995 76.3146V2.85534Z" fill="#070809"/>
<path opacity="0.34" d="M2.61962 3.16736C2.61962 2.66117 6.25648 2.22998 6.75327 2.22998H73.2567C73.7535 2.22998 77.3997 2.63305 77.3997 3.16736V76.1326C77.3997 76.6294 73.7628 77.07 73.2567 77.07H6.76265C6.25649 77.07 2.61962 76.6669 2.61962 76.1326V3.16736Z" fill="#08080A"/>
<path opacity="0.32" d="M2.77978 3.48352C2.77978 2.93065 6.30316 2.49023 6.85603 2.49023H73.1541C73.707 2.49023 77.2398 2.93065 77.2398 3.48352V75.9376C77.2398 76.4904 73.7164 76.9402 73.1635 76.9402H6.85603C6.30316 76.9402 2.77978 76.4904 2.77978 75.9376V3.48352Z" fill="#09090B"/>
<path opacity="0.31" d="M2.93993 3.79666C2.93993 3.1971 6.34999 2.70996 6.94955 2.70996H73.061C73.6606 2.70996 77.08 3.1971 77.08 3.79666V75.7533C77.08 76.3528 73.67 76.84 73.0704 76.84H6.95893C6.35937 76.84 2.93993 76.3528 2.93993 75.7533V3.79666Z" fill="#0A0A0C"/>
<path opacity="0.29" d="M3.10009 4.11999C3.10009 3.46441 6.39676 2.93994 7.04299 2.93994H72.9771C73.6234 2.93994 76.9201 3.46441 76.9201 4.11999V75.5693C76.9201 76.2155 73.6327 76.7399 72.9771 76.7399H7.05236C6.40613 76.7399 3.10009 76.2155 3.10009 75.5693V4.11999Z" fill="#0A0B0D"/>
<path opacity="0.27" d="M3.26025 4.43352C3.26025 3.7313 6.44368 3.16016 7.1459 3.16016H72.8646C73.5669 3.16016 76.7502 3.7313 76.7502 4.43352V75.3768C76.7502 76.079 73.5762 76.6502 72.874 76.6502H7.1459C6.45304 76.6502 3.26025 76.079 3.26025 75.3768V4.43352Z" fill="#0B0C0E"/>
<path opacity="0.26" d="M3.41903 4.74741C3.41903 3.99857 6.48919 3.39014 7.23802 3.39014H72.7606C73.5094 3.39014 76.5796 3.99857 76.5796 4.74741V75.2229C76.5796 75.9717 73.5188 76.5801 72.7606 76.5801H7.23802C6.48919 76.5801 3.40966 75.9717 3.40966 75.2229L3.41903 4.74741Z" fill="#0C0D0F"/>
<path opacity="0.24" d="M3.58984 5.03091C3.58984 4.23552 6.53745 3.58984 7.33283 3.58984H72.6668C73.4622 3.58984 76.4098 4.23552 76.4098 5.03091V74.9788C76.4098 75.7742 73.4622 76.4198 72.6668 76.4198H7.3422C6.54681 76.4198 3.5992 75.7742 3.5992 74.9788L3.58984 5.03091Z" fill="#0D0D0F"/>
<path opacity="0.23" d="M3.70995 5.38342C3.70995 4.53212 6.51646 3.83984 7.39583 3.83984H72.5347C73.386 3.83984 76.23 4.53212 76.23 5.38342V74.8163C76.23 75.6676 73.4235 76.3598 72.5441 76.3598H7.45196C6.61 76.3598 3.76608 75.6676 3.76608 74.8163L3.70995 5.38342Z" fill="#0E0E10"/>
<path opacity="0.21" d="M3.90966 5.6976C3.90966 4.76238 6.63118 4.07031 7.52901 4.07031H72.481C73.4162 4.07031 76.1097 4.79979 76.1097 5.6976V74.633C76.1097 75.5682 73.3788 76.2603 72.481 76.2603H7.53837C6.60314 76.2603 3.90966 75.5308 3.90966 74.633V5.6976Z" fill="#0F0F11"/>
<path opacity="0.19" d="M4.06982 6.01035C4.06982 5.0754 6.67836 4.29004 7.63203 4.29004H72.3783C73.3132 4.29004 75.9498 5.06605 75.9498 6.01035V74.4397C75.9498 75.3747 73.3319 76.16 72.3876 76.16H7.63203C6.69706 76.16 4.06982 75.3934 4.06982 74.4397V6.01035Z" fill="#0F1012"/>
<path opacity="0.18" d="M4.22997 6.32396C4.22997 5.32385 6.72559 4.52002 7.72571 4.52002H72.2849C73.285 4.52002 75.79 5.32385 75.79 6.32396V74.2567C75.79 75.2568 73.285 76.07 72.2849 76.07H7.73507C6.73495 76.07 4.22997 75.2568 4.22997 74.2567V6.32396Z" fill="#101113"/>
<path opacity="0.16" d="M7.81958 4.74023H72.1816C73.0935 4.74023 73.9681 5.10251 74.6129 5.74738C75.2578 6.39225 75.6201 7.26687 75.6201 8.17885V72.541C75.6201 73.4505 75.2588 74.3227 74.6157 74.9658C73.9726 75.6089 73.1004 75.9702 72.1909 75.9702H7.8287C6.91672 75.9702 6.04219 75.6079 5.39732 74.9631C4.75246 74.3182 4.39014 73.4436 4.39014 72.5316V8.17885C4.38891 7.72773 4.47682 7.2808 4.64861 6.86366C4.8204 6.44653 5.07283 6.06738 5.39139 5.74795C5.70995 5.42852 6.08821 5.17508 6.50488 5.00216C6.92155 4.82924 7.36845 4.74023 7.81958 4.74023V4.74023Z" fill="#111214"/>
<path opacity="0.15" d="M4.55029 6.98968C4.55029 5.88742 6.82021 5 7.92249 5H72.0881C73.1903 5 75.4603 5.93412 75.4603 6.98968V73.9103C75.4603 75.0126 73.1903 75.9 72.0974 75.9H7.92249C6.82956 75.9 4.55029 74.9659 4.55029 73.9103V6.98968Z" fill="#121215"/>
<path opacity="0.13" d="M4.70995 7.27333C4.70995 6.1247 6.86713 5.2002 8.01577 5.2002H71.9941C73.1427 5.2002 75.3 6.13403 75.3 7.27333V73.6977C75.3 74.8463 73.1427 75.7802 71.9941 75.7802H8.02512C6.87648 75.7802 4.70995 74.8463 4.70995 73.6977V7.27333Z" fill="#131316"/>
<path opacity="0.11" d="M4.87988 7.58579C4.87988 6.39083 6.92449 5.41992 8.11949 5.41992H71.9403C73.1353 5.41992 75.1799 6.35349 75.1799 7.58579V73.514C75.1799 74.709 73.1353 75.6799 71.9403 75.6799H8.11949C6.92449 75.6799 4.87988 74.7464 4.87988 73.514V7.58579Z" fill="#131417"/>
<path opacity="0.1" d="M5.04003 7.90836C5.04003 6.65781 6.97189 5.6499 8.21315 5.6499H71.7975C73.0481 5.6499 74.98 6.65781 74.98 7.90836V73.2915C74.98 74.542 73.0481 75.5499 71.7975 75.5499H8.21315C6.97189 75.5499 5.04003 74.542 5.04003 73.2915V7.90836Z" fill="#141518"/>
<path opacity="0.08" d="M5.1997 8.22126C5.1997 6.9244 7.06571 5.87012 8.31592 5.87012H71.7035C73.0004 5.87012 74.8197 6.9244 74.8197 8.22126V73.139C74.8197 74.4358 72.9537 75.4901 71.7035 75.4901H8.31592C7.01906 75.4901 5.1997 74.4358 5.1997 73.139V8.22126Z" fill="#151619"/>
<path opacity="0.06" d="M5.35986 8.53444C5.35986 7.19135 7.06667 6.1001 8.40976 6.1001H71.6099C72.953 6.1001 74.6598 7.19135 74.6598 8.53444V72.9558C74.6598 74.2988 72.953 75.3901 71.6099 75.3901H8.40976C7.06667 75.3901 5.35986 74.2988 5.35986 72.9558V8.53444Z" fill="#16171A"/>
<path opacity="0.05" d="M5.51958 8.84712C5.51958 7.45784 7.11402 6.32031 8.50332 6.32031H71.5066C72.9052 6.32031 74.4903 7.45784 74.4903 8.84712V72.7635C74.4903 74.1621 72.9052 75.2903 71.5066 75.2903H8.49398C7.10469 75.2903 5.51025 74.1621 5.51025 72.7635L5.51958 8.84712Z" fill="#17171B"/>
<path opacity="0.03" d="M5.70816 9.16926C5.77828 8.44504 6.11822 7.77368 6.66044 7.28848C7.20266 6.80327 7.90752 6.5397 8.63509 6.5501H71.4426C72.1692 6.53989 72.8729 6.80378 73.4136 7.28917C73.9543 7.77457 74.2923 8.44584 74.3602 9.16926V72.551C74.2923 73.2744 73.9543 73.9457 73.4136 74.4311C72.8729 74.9165 72.1692 75.1804 71.4426 75.1701H8.6071C7.87953 75.1805 7.17467 74.917 6.63245 74.4318C6.09022 73.9466 5.75028 73.2752 5.68017 72.551L5.70816 9.16926Z" fill="#17181C"/>
<path opacity="0.02" d="M5.83984 9.48234C5.87588 8.74984 6.1937 8.05963 6.72683 7.55602C7.25997 7.05241 7.96715 6.7744 8.70052 6.78009H71.3092C72.0459 6.7625 72.7598 7.03654 73.2955 7.5426C73.8313 8.04866 74.1455 8.74579 74.1699 9.48234V72.398C74.1455 73.1345 73.8313 73.8317 73.2955 74.3377C72.7598 74.8438 72.0459 75.1178 71.3092 75.1002H8.70052C7.96715 75.1059 7.25997 74.8279 6.72683 74.3243C6.1937 73.8207 5.87588 73.1305 5.83984 72.398V9.48234Z" fill="#18191D"/>
<rect x="80" y="65" width="14" height="80" transform="rotate(90 80 65)" fill="url(#paint1_linear_1473_75254)" fill-opacity="0.8"/>
<path opacity="0.09" d="M25 -6H54L39.5 86L25 -6Z" fill="url(#paint2_linear_1473_75254)"/>
<path opacity="0.09" d="M77.4067 -5.08691L95.5933 5.41309L40.5 79.8374L77.4067 -5.08691Z" fill="url(#paint3_linear_1473_75254)"/>
<path opacity="0.09" d="M121.215 40.9526L126.65 61.2371L35.0674 74.9062L121.215 40.9526Z" fill="url(#paint4_linear_1473_75254)"/>
<path opacity="0.09" d="M-42.215 40.9526L-47.6502 61.2371L43.9326 74.9062L-42.215 40.9526Z" fill="url(#paint5_linear_1473_75254)"/>
<path opacity="0.09" d="M1.59326 -5.08691L-16.5933 5.41309L38.5 79.8374L1.59326 -5.08691Z" fill="url(#paint6_linear_1473_75254)"/>
<rect x="80" y="66" width="14" height="80" transform="rotate(90 80 66)" fill="url(#paint7_linear_1473_75254)" fill-opacity="0.8"/>
<path d="M-7.62939e-06 80V0H0.999992V78.1176L-7.62939e-06 80Z" fill="url(#paint8_linear_1473_75254)"/>
<path d="M80 80H-7.62939e-06L0.941169 78H79.0682L80 80Z" fill="url(#paint9_linear_1473_75254)"/>
<path d="M80 0V80L79.01 78.1176V0H80Z" fill="url(#paint10_linear_1473_75254)"/>
</g>
<defs>
<linearGradient id="paint0_linear_1473_75254" x1="40" y1="5.50588" x2="40" y2="92.2353" gradientUnits="userSpaceOnUse">
<stop stop-color="#2C292E"/>
<stop offset="1" stop-color="#191A1E"/>
</linearGradient>
<linearGradient id="paint1_linear_1473_75254" x1="94" y1="108.902" x2="80" y2="108.902" gradientUnits="userSpaceOnUse">
<stop/>
<stop offset="1" stop-opacity="0"/>
</linearGradient>
<linearGradient id="paint2_linear_1473_75254" x1="39.5" y1="-6" x2="39.5" y2="86" gradientUnits="userSpaceOnUse">
<stop stop-color="#FFC701"/>
<stop offset="1" stop-color="#E04F21" stop-opacity="0"/>
</linearGradient>
<linearGradient id="paint3_linear_1473_75254" x1="86.5" y1="0.163086" x2="40.5" y2="79.8374" gradientUnits="userSpaceOnUse">
<stop stop-color="#FFC701"/>
<stop offset="1" stop-color="#E04F21" stop-opacity="0"/>
</linearGradient>
<linearGradient id="paint4_linear_1473_75254" x1="123.933" y1="51.0949" x2="35.0674" y2="74.9062" gradientUnits="userSpaceOnUse">
<stop stop-color="#FFC701"/>
<stop offset="1" stop-color="#E04F21" stop-opacity="0"/>
</linearGradient>
<linearGradient id="paint5_linear_1473_75254" x1="-44.9326" y1="51.0949" x2="43.9326" y2="74.9062" gradientUnits="userSpaceOnUse">
<stop stop-color="#FFC701"/>
<stop offset="1" stop-color="#E04F21" stop-opacity="0"/>
</linearGradient>
<linearGradient id="paint6_linear_1473_75254" x1="-7.5" y1="0.163086" x2="38.5" y2="79.8374" gradientUnits="userSpaceOnUse">
<stop stop-color="#FFC701"/>
<stop offset="1" stop-color="#E04F21" stop-opacity="0"/>
</linearGradient>
<linearGradient id="paint7_linear_1473_75254" x1="94" y1="109.902" x2="80" y2="109.902" gradientUnits="userSpaceOnUse">
<stop/>
<stop offset="1" stop-opacity="0"/>
</linearGradient>
<linearGradient id="paint8_linear_1473_75254" x1="-0.380008" y1="40" x2="81.57" y2="40" gradientUnits="userSpaceOnUse">
<stop stop-color="#2C292E"/>
<stop offset="0.63" stop-color="#636363"/>
<stop offset="1" stop-color="#2C292E"/>
</linearGradient>
<linearGradient id="paint9_linear_1473_75254" x1="-0.357655" y1="37.5" x2="76.7718" y2="37.5" gradientUnits="userSpaceOnUse">
<stop stop-color="#2C292E"/>
<stop offset="0.63" stop-color="#636363"/>
<stop offset="1" stop-color="#2C292E"/>
</linearGradient>
<linearGradient id="paint10_linear_1473_75254" x1="-5.38001" y1="40" x2="76.57" y2="40" gradientUnits="userSpaceOnUse">
<stop stop-color="#2C292E"/>
<stop offset="0.63" stop-color="#636363"/>
<stop offset="1" stop-color="#2C292E"/>
</linearGradient>
<clipPath id="clip0_1473_75254">
<rect width="80" height="80" fill="white"/>
</clipPath>
</defs>
</svg>
