<svg width="128" height="79" viewBox="0 0 128 79" fill="none" xmlns="http://www.w3.org/2000/svg">
<rect x="8.5" y="11.5" width="112" height="56" rx="4.5" stroke="#D9D9D9"/>
<path d="M14.8536 4.35355C15.0488 4.15829 15.0488 3.84171 14.8536 3.64645L11.6716 0.464466C11.4763 0.269204 11.1597 0.269204 10.9645 0.464466C10.7692 0.659728 10.7692 0.976311 10.9645 1.17157L13.7929 4L10.9645 6.82843C10.7692 7.02369 10.7692 7.34027 10.9645 7.53553C11.1597 7.7308 11.4763 7.7308 11.6716 7.53553L14.8536 4.35355ZM1.5 17.5C1.5 10.3203 7.3203 4.5 14.5 4.5V3.5C6.76801 3.5 0.5 9.76801 0.5 17.5H1.5Z" fill="white"/>
<path d="M113.646 74.1464C113.451 74.3417 113.451 74.6583 113.646 74.8536L116.828 78.0355C117.024 78.2308 117.34 78.2308 117.536 78.0355C117.731 77.8403 117.731 77.5237 117.536 77.3284L114.707 74.5L117.536 71.6716C117.731 71.4763 117.731 71.1597 117.536 70.9645C117.34 70.7692 117.024 70.7692 116.828 70.9645L113.646 74.1464ZM127 61C127 68.1797 121.18 74 114 74L114 75C121.732 75 128 68.732 128 61L127 61Z" fill="white"/>
</svg>
