<svg width="24" height="24" viewBox="0 0 24 24" fill="none" xmlns="http://www.w3.org/2000/svg">
<path d="M5.33333 9.14286C4.59583 9.14286 4 8.50446 4 7.71429C4 6.92411 4.59583 6.28571 5.33333 6.28571C6.07083 6.28571 6.66667 6.92411 6.66667 7.71429C6.66667 8.50446 6.07083 9.14286 5.33333 9.14286ZM8.33333 7.71429C8.33333 7.12054 8.77917 6.64286 9.33333 6.64286H18.6667C19.2208 6.64286 19.6667 7.12054 19.6667 7.71429C19.6667 8.30804 19.2208 8.78571 18.6667 8.78571H9.33333C8.77917 8.78571 8.33333 8.30804 8.33333 7.71429ZM8.33333 12C8.33333 11.4062 8.77917 10.9286 9.33333 10.9286H18.6667C19.2208 10.9286 19.6667 11.4062 19.6667 12C19.6667 12.5938 19.2208 13.0714 18.6667 13.0714H9.33333C8.77917 13.0714 8.33333 12.5938 8.33333 12ZM8.33333 16.2857C8.33333 15.692 8.77917 15.2143 9.33333 15.2143H18.6667C19.2208 15.2143 19.6667 15.692 19.6667 16.2857C19.6667 16.8795 19.2208 17.3571 18.6667 17.3571H9.33333C8.77917 17.3571 8.33333 16.8795 8.33333 16.2857ZM5.33333 10.5714C6.07083 10.5714 6.66667 11.2098 6.66667 12C6.66667 12.7902 6.07083 13.4286 5.33333 13.4286C4.59583 13.4286 4 12.7902 4 12C4 11.2098 4.59583 10.5714 5.33333 10.5714ZM5.33333 17.7143C4.59583 17.7143 4 17.0759 4 16.2857C4 15.4955 4.59583 14.8571 5.33333 14.8571C6.07083 14.8571 6.66667 15.4955 6.66667 16.2857C6.66667 17.0759 6.07083 17.7143 5.33333 17.7143ZM0 4.85714C0 3.27902 1.19375 2 2.66667 2H21.3333C22.8042 2 24 3.27902 24 4.85714V19.1429C24 20.7188 22.8042 22 21.3333 22H2.66667C1.19375 22 0 20.7188 0 19.1429V4.85714ZM2 4.85714V19.1429C2 19.5357 2.29833 19.8571 2.66667 19.8571H21.3333C21.7 19.8571 22 19.5357 22 19.1429V4.85714C22 4.4625 21.7 4.14286 21.3333 4.14286H2.66667C2.29833 4.14286 2 4.4625 2 4.85714Z" fill="url(#paint0_linear_1_2585)"/>
<defs>
<linearGradient id="paint0_linear_1_2585" x1="12" y1="2" x2="12" y2="22" gradientUnits="userSpaceOnUse">
<stop stop-color="#35E03B"/>
<stop offset="1" stop-color="#288F18"/>
</linearGradient>
</defs>
</svg>
