<svg width="136" height="48" viewBox="0 0 136 48" fill="none" xmlns="http://www.w3.org/2000/svg">
<path d="M136 0H0V48H136V0Z" fill="#AE9E45"/>
<path d="M136 0H0V48H136V0Z" fill="url(#paint0_radial_1247_42275)"/>
<path d="M136 0L135.292 1.5H0.708333L0 0H136Z" fill="#D6BF4C"/>
<path d="M0.708333 1.5V46.5L0 48V0L0.708333 1.5Z" fill="url(#paint1_linear_1247_42275)"/>
<path d="M136 0V48L135.292 46.5V1.5L136 0Z" fill="url(#paint2_linear_1247_42275)"/>
<path d="M136 48H0L0.708333 46.5H135.292L136 48Z" fill="url(#paint3_linear_1247_42275)"/>
<defs>
<radialGradient id="paint0_radial_1247_42275" cx="0" cy="0" r="1" gradientUnits="userSpaceOnUse" gradientTransform="translate(68 23.9964) scale(72.2075 39.7566)">
<stop offset="0.2" stop-color="#AE9E45" stop-opacity="0"/>
<stop offset="1" stop-color="#1F2021" stop-opacity="0.3"/>
</radialGradient>
<linearGradient id="paint1_linear_1247_42275" x1="0.354167" y1="-0.23" x2="0.354167" y2="47.51" gradientUnits="userSpaceOnUse">
<stop stop-color="#D6BF4C" stop-opacity="0.5"/>
<stop offset="0.5" stop-color="#D6BF4C"/>
<stop offset="1" stop-color="#D6BF4C" stop-opacity="0.5"/>
</linearGradient>
<linearGradient id="paint2_linear_1247_42275" x1="135.646" y1="0.62" x2="135.646" y2="46.92" gradientUnits="userSpaceOnUse">
<stop stop-color="#1F2021" stop-opacity="0.6"/>
<stop offset="0.5" stop-color="#1F2021" stop-opacity="0.3"/>
<stop offset="1" stop-color="#1F2021" stop-opacity="0.6"/>
</linearGradient>
<linearGradient id="paint3_linear_1247_42275" x1="0" y1="47.25" x2="136" y2="47.25" gradientUnits="userSpaceOnUse">
<stop stop-color="#1F2021" stop-opacity="0.6"/>
<stop offset="0.5" stop-color="#1F2021" stop-opacity="0.3"/>
<stop offset="1" stop-color="#1F2021" stop-opacity="0.6"/>
</linearGradient>
</defs>
</svg>
