<svg width="113" height="40" viewBox="0 0 113 40" fill="none" xmlns="http://www.w3.org/2000/svg">
<path d="M112.343 1.44185H13.2529C13.0202 1.44114 12.7931 1.52609 12.6031 1.68494C12.4131 1.84378 12.2698 2.06864 12.1929 2.32821L1.19289 38.9646C1.15555 39.0859 1.13528 39.2137 1.1329 39.3428C0.953774 39.3433 0.77715 39.2931 0.617852 39.1963C0.458554 39.0995 0.32122 38.9589 0.217385 38.7864C0.11355 38.6139 0.0462384 38.4145 0.021096 38.2049C-0.00404637 37.9954 0.0137243 37.7817 0.0728996 37.5819L11.0229 0.886429C11.0998 0.626854 11.2432 0.401998 11.4331 0.243152C11.6231 0.0843057 11.8502 -0.000641762 12.0829 6.54149e-05H111.253C111.407 0.0024446 111.558 0.0425819 111.698 0.11793C111.838 0.193278 111.964 0.302123 112.066 0.437693C112.169 0.573263 112.246 0.732543 112.294 0.9054C112.341 1.07826 112.358 1.26095 112.343 1.44185Z" fill="url(#paint0_linear_1100_51514)"/>
<defs>
<linearGradient id="paint0_linear_1100_51514" x1="49.9229" y1="-16.8054" x2="64.5414" y2="44.2976" gradientUnits="userSpaceOnUse">
<stop stop-color="#525257"/>
<stop offset="1" stop-color="#2F3438" stop-opacity="0"/>
</linearGradient>
</defs>
</svg>
