<svg width="112" height="54" viewBox="0 0 112 54" fill="none" xmlns="http://www.w3.org/2000/svg">
<path d="M110.668 53.7416H15.2286C14.6786 53.7416 14.1731 53.2944 13.9947 52.6137L0.0801505 2.61264C-0.232036 1.48465 0.407203 0.29834 1.31403 0.29834H96.7538C97.3038 0.29834 97.8092 0.74562 97.9876 1.4263L111.902 51.4274C112.214 52.5554 111.59 53.7416 110.668 53.7416Z" fill="url(#paint0_linear_843_35835)"/>
<path d="M110.668 53.7416H15.2279C14.6779 53.7416 14.1724 53.2944 13.9941 52.6137L0.0943412 2.61264C-0.217845 1.48465 0.421393 0.29834 1.32822 0.29834H2.59183L16.3132 49.5992C16.5064 50.2799 16.997 50.7272 17.547 50.7272H111.738L111.931 51.4274C112.214 52.5554 111.589 53.7416 110.668 53.7416Z" fill="url(#paint1_linear_843_35835)"/>
<path d="M110.668 53.7416H15.2286C14.6786 53.7416 14.1731 53.2944 13.9947 52.6137L0.0801505 2.61264C-0.232036 1.48465 0.407203 0.29834 1.31403 0.29834H96.7538C97.3038 0.29834 97.8092 0.74562 97.9876 1.4263L111.902 51.4274C112.214 52.5554 111.59 53.7416 110.668 53.7416Z" fill="url(#paint2_linear_843_35835)"/>
<defs>
<linearGradient id="paint0_linear_843_35835" x1="-11.0405" y1="32.8081" x2="31.4685" y2="30.6657" gradientUnits="userSpaceOnUse">
<stop offset="4.1024e-07" stop-color="#2C292E"/>
<stop offset="1" stop-color="#191A1E"/>
</linearGradient>
<linearGradient id="paint1_linear_843_35835" x1="-7.22657" y1="74.0647" x2="37.7101" y2="54.5265" gradientUnits="userSpaceOnUse">
<stop stop-color="#525257"/>
<stop offset="1" stop-color="#2F3438" stop-opacity="0"/>
</linearGradient>
<linearGradient id="paint2_linear_843_35835" x1="12.3028" y1="49.1307" x2="50.6902" y2="37.782" gradientUnits="userSpaceOnUse">
<stop offset="8.2048e-07" stop-color="#2C292E" stop-opacity="0"/>
<stop offset="1"/>
</linearGradient>
</defs>
</svg>
