<svg width="72" height="40" viewBox="0 0 72 40" fill="none" xmlns="http://www.w3.org/2000/svg">
<path d="M57.2218 4.9803e-05L1.38052 5.46848e-05C1.31735 -0.000909277 1.2549 0.0134439 1.19859 0.0418519C1.14227 0.0702598 1.09379 0.111856 1.05736 0.163064C1.02093 0.214271 0.997637 0.273541 0.989516 0.335701C0.981394 0.397861 0.988685 0.461026 1.01075 0.519758L15.4009 39.7432C15.4283 39.8174 15.4777 39.8817 15.5426 39.9275C15.6075 39.9734 15.6849 39.9986 15.7645 40L71.6119 40C71.6746 40 71.7363 39.9849 71.7918 39.9561C71.8473 39.9272 71.895 39.8855 71.9307 39.8344C71.9664 39.7834 71.9892 39.7245 71.997 39.6628C72.0048 39.6011 71.9974 39.5385 71.9756 39.4803L57.5915 0.256841C57.5646 0.181142 57.5144 0.115692 57.4481 0.0696495C57.3818 0.0236066 57.3027 -0.000717431 57.2218 4.9803e-05Z" fill="url(#paint0_linear_1193_58893)"/>
<path d="M56.2355 4.9803e-05L0.394226 5.46848e-05C0.331057 -0.000909277 0.268604 0.0134439 0.212288 0.0418519C0.155972 0.0702598 0.107494 0.111856 0.071061 0.163064C0.0346278 0.214271 0.0113393 0.273541 0.00321794 0.335701C-0.00490344 0.397861 0.00238693 0.461026 0.0244562 0.519758L14.4146 39.7432C14.442 39.8174 14.4914 39.8817 14.5563 39.9275C14.6212 39.9734 14.6986 39.9986 14.7782 40L70.6257 40C70.6883 40 70.75 39.9849 70.8055 39.9561C70.861 39.9272 70.9087 39.8855 70.9444 39.8344C70.9801 39.7834 71.0029 39.7245 71.0107 39.6628C71.0185 39.6011 71.0111 39.5385 70.9893 39.4803L56.6052 0.256841C56.5783 0.181142 56.5281 0.115692 56.4618 0.0696495C56.3955 0.0236066 56.3164 -0.000717431 56.2355 4.9803e-05Z" fill="url(#paint1_linear_1193_58893)"/>
<path d="M1.35101 8.29221e-06L2.7371 8.17104e-06L16.4582 37.9263C16.4856 38.0015 16.5352 38.0665 16.6004 38.1124C16.6657 38.1584 16.7433 38.1831 16.823 38.1832L70.5219 38.1832L70.99 39.4739C71.0113 39.5325 71.0184 39.5954 71.0107 39.6574C71.0029 39.7193 70.9806 39.7785 70.9454 39.83C70.9103 39.8815 70.8635 39.9238 70.8089 39.9534C70.7542 39.9829 70.6933 39.9989 70.6313 40L15.5402 40C15.4616 39.9986 15.3853 39.9734 15.3213 39.9275C15.2573 39.8816 15.2085 39.8173 15.1815 39.7431L1.01057 0.51995C0.989439 0.463109 0.981948 0.402051 0.988707 0.341745C0.995466 0.28144 1.01629 0.22359 1.04947 0.172912C1.08265 0.122234 1.12726 0.0801623 1.17966 0.0501133C1.23206 0.0200644 1.29077 0.00290501 1.35101 8.29221e-06V8.29221e-06Z" fill="url(#paint2_linear_1193_58893)"/>
<defs>
<linearGradient id="paint0_linear_1193_58893" x1="12.9173" y1="62.3051" x2="36.7967" y2="18.7703" gradientUnits="userSpaceOnUse">
<stop stop-color="#2C292E"/>
<stop offset="1" stop-color="#191A1E"/>
</linearGradient>
<linearGradient id="paint1_linear_1193_58893" x1="10.4211" y1="28.6335" x2="34.5319" y2="20.2" gradientUnits="userSpaceOnUse">
<stop stop-color="#2C292E" stop-opacity="0"/>
<stop offset="1"/>
</linearGradient>
<linearGradient id="paint2_linear_1193_58893" x1="24.5255" y1="64.8784" x2="33.5851" y2="29.842" gradientUnits="userSpaceOnUse">
<stop stop-color="#525257"/>
<stop offset="1" stop-color="#2F3438" stop-opacity="0"/>
</linearGradient>
</defs>
</svg>
