<svg width="240" height="48" viewBox="0 0 240 48" fill="none" xmlns="http://www.w3.org/2000/svg">
<path d="M12.6664 47.9999L227.342 48C227.424 48.0011 227.505 47.9737 227.57 47.9223C227.636 47.8709 227.682 47.7985 227.702 47.7167L239.989 0.476128C240.003 0.419025 240.004 0.359531 239.991 0.302185C239.979 0.244839 239.953 0.191161 239.917 0.145237C239.882 0.0993124 239.836 0.0623702 239.784 0.0372085C239.732 0.0120469 239.675 -0.00066218 239.617 5.7187e-05L0.379001 3.62721e-05C0.322013 -2.42553e-05 0.26576 0.0132489 0.214598 0.0388432C0.163435 0.0644374 0.118709 0.101688 0.0838801 0.14768C0.0490511 0.193673 0.0250378 0.247168 0.0136952 0.304113C0.00235249 0.361059 0.00398073 0.419904 0.018454 0.476107L12.3059 47.7167C12.3259 47.7984 12.3723 47.8709 12.4378 47.9223C12.5032 47.9737 12.5838 48.0011 12.6664 47.9999Z" fill="url(#paint0_linear_1193_58888)"/>
<path d="M0.378565 3.62726e-05L2.39394 3.64488e-05C2.36432 0.0422371 2.34466 0.0908396 2.33646 0.142054C2.32826 0.193268 2.33175 0.245711 2.34666 0.295325L2.39394 0.476107L2.22256 0.476107C2.16723 0.475298 2.11245 0.487508 2.06248 0.511748C2.01251 0.535988 1.9687 0.571613 1.93441 0.615896C1.90012 0.66018 1.87629 0.711925 1.86476 0.767107C1.85324 0.82229 1.85433 0.879428 1.86794 0.934115L13.8894 45.8003C13.9113 45.8788 13.9579 45.9478 14.0219 45.9968C14.086 46.0458 14.164 46.072 14.244 46.0715L225.745 46.0715C225.825 46.072 225.903 46.0458 225.967 45.9968C226.031 45.9478 226.078 45.8788 226.1 45.8003L238.139 0.934135C238.153 0.879449 238.154 0.82231 238.142 0.767128C238.131 0.711945 238.107 0.6602 238.073 0.615917C238.038 0.571634 237.995 0.536008 237.945 0.511768C237.895 0.487528 237.84 0.475318 237.785 0.476127L237.613 0.476127L237.66 0.295345C237.674 0.245277 237.677 0.192568 237.668 0.141338C237.659 0.0901087 237.638 0.0417536 237.607 5.70118e-05L239.617 5.71875e-05C239.674 0.000254869 239.73 0.0136389 239.781 0.039196C239.833 0.0647531 239.878 0.101823 239.913 0.147629C239.948 0.193435 239.973 0.246797 239.985 0.303692C239.997 0.360586 239.997 0.419522 239.983 0.476128L227.696 47.7167C227.676 47.7985 227.629 47.8709 227.564 47.9223C227.498 47.9738 227.418 48.0011 227.335 48L12.6601 48C12.5769 48.0003 12.496 47.9728 12.4298 47.9216C12.3635 47.8704 12.3157 47.7984 12.2936 47.7167L0.0121063 0.476107C-0.00250339 0.419408 -0.00401415 0.360045 0.0076468 0.302641C0.0193078 0.245237 0.043833 0.19137 0.0793283 0.145254C0.114823 0.0991379 0.160317 0.0620107 0.212231 0.0368176C0.264144 0.0116245 0.32108 -0.000957513 0.378565 3.62726e-05Z" fill="url(#paint1_linear_1193_58888)"/>
<defs>
<linearGradient id="paint0_linear_1193_58888" x1="155.254" y1="60.7035" x2="147.91" y2="5.98503" gradientUnits="userSpaceOnUse">
<stop stop-color="#2C292E"/>
<stop offset="1" stop-color="#191A1E"/>
</linearGradient>
<linearGradient id="paint1_linear_1193_58888" x1="147.464" y1="58.5401" x2="147.464" y2="21.3454" gradientUnits="userSpaceOnUse">
<stop stop-color="#525257"/>
<stop offset="1" stop-color="#2F3438" stop-opacity="0"/>
</linearGradient>
</defs>
</svg>
