<svg width="72" height="40" viewBox="0 0 72 40" fill="none" xmlns="http://www.w3.org/2000/svg">
<path d="M14.7782 4.9803e-05L70.6194 5.46848e-05C70.6826 -0.000909277 70.7451 0.0134439 70.8014 0.0418519C70.8577 0.0702598 70.9062 0.111856 70.9426 0.163064C70.979 0.214271 71.0023 0.273541 71.0105 0.335701C71.0186 0.397861 71.0113 0.461026 70.9892 0.519758L56.599 39.7432C56.5717 39.8174 56.5223 39.8817 56.4574 39.9275C56.3925 39.9734 56.3151 39.9986 56.2354 40L0.38802 40C0.32537 40 0.26366 39.9849 0.208156 39.9561C0.152651 39.9272 0.105006 39.8855 0.0692818 39.8344C0.0335577 39.7834 0.0108167 39.7245 0.00300447 39.6628C-0.00480777 39.6011 0.00253883 39.5385 0.0244167 39.4803L14.4084 0.256841C14.4354 0.181142 14.4855 0.115692 14.5518 0.0696495C14.6181 0.0236066 14.6973 -0.000717431 14.7782 4.9803e-05Z" fill="url(#paint0_linear_1193_58889)"/>
<path d="M15.7645 4.9803e-05L71.6058 5.46848e-05C71.6689 -0.000909277 71.7314 0.0134439 71.7877 0.0418519C71.844 0.0702598 71.8925 0.111856 71.9289 0.163064C71.9654 0.214271 71.9887 0.273541 71.9968 0.335701C72.0049 0.397861 71.9976 0.461026 71.9755 0.519758L57.5854 39.7432C57.558 39.8174 57.5086 39.8817 57.4437 39.9275C57.3788 39.9734 57.3014 39.9986 57.2218 40L1.37435 40C1.3117 40 1.24999 39.9849 1.19448 39.9561C1.13898 39.9272 1.09133 39.8855 1.05561 39.8344C1.01989 39.7834 0.997145 39.7245 0.989333 39.6628C0.98152 39.6011 0.988867 39.5385 1.01074 39.4803L15.3948 0.256841C15.4217 0.181142 15.4719 0.115692 15.5382 0.0696495C15.6045 0.0236066 15.6836 -0.000717431 15.7645 4.9803e-05Z" fill="url(#paint1_linear_1193_58889)"/>
<path d="M70.649 8.29221e-06L69.2629 8.17104e-06L55.5418 37.9263C55.5144 38.0015 55.4648 38.0665 55.3995 38.1124C55.3343 38.1584 55.2566 38.1831 55.177 38.1832L1.47812 38.1832L1.01 39.4739C0.988664 39.5325 0.981573 39.5954 0.989317 39.6574C0.99706 39.7193 1.01942 39.7785 1.05452 39.83C1.08962 39.8815 1.13645 39.9238 1.19111 39.9534C1.24576 39.9829 1.30664 39.9989 1.36868 40L56.4598 40C56.5383 39.9986 56.6147 39.9734 56.6787 39.9275C56.7427 39.8816 56.7914 39.8173 56.8184 39.7431L70.9894 0.51995C71.0105 0.463109 71.018 0.402051 71.0113 0.341745C71.0045 0.28144 70.9837 0.22359 70.9505 0.172912C70.9173 0.122234 70.8727 0.0801623 70.8203 0.0501133C70.7679 0.0200644 70.7092 0.00290501 70.649 8.29221e-06V8.29221e-06Z" fill="url(#paint2_linear_1193_58889)"/>
<defs>
<linearGradient id="paint0_linear_1193_58889" x1="59.0827" y1="62.3051" x2="35.2033" y2="18.7703" gradientUnits="userSpaceOnUse">
<stop stop-color="#2C292E"/>
<stop offset="1" stop-color="#191A1E"/>
</linearGradient>
<linearGradient id="paint1_linear_1193_58889" x1="61.5789" y1="28.6335" x2="37.4681" y2="20.2" gradientUnits="userSpaceOnUse">
<stop stop-color="#2C292E" stop-opacity="0"/>
<stop offset="1"/>
</linearGradient>
<linearGradient id="paint2_linear_1193_58889" x1="47.4745" y1="64.8784" x2="38.4149" y2="29.842" gradientUnits="userSpaceOnUse">
<stop stop-color="#525257"/>
<stop offset="1" stop-color="#2F3438" stop-opacity="0"/>
</linearGradient>
</defs>
</svg>
