<svg width="207" height="118" viewBox="0 0 207 118" fill="none" xmlns="http://www.w3.org/2000/svg">
<path d="M42.8953 117.349H205.002C205.184 117.349 205.363 117.305 205.524 117.221C205.685 117.136 205.823 117.014 205.927 116.865C206.031 116.716 206.097 116.544 206.119 116.363C206.142 116.183 206.121 116 206.057 115.83L164.305 1.16166C164.222 0.943236 164.076 0.754771 163.884 0.620852C163.693 0.486933 163.466 0.413751 163.232 0.410889H1.14328C0.961345 0.412184 0.782346 0.456832 0.621107 0.541045C0.459868 0.625258 0.321066 0.746662 0.216146 0.895184C0.111227 1.04371 0.0432312 1.21507 0.0178147 1.39508C-0.00760191 1.5751 0.0103019 1.75854 0.0700043 1.93027L41.8398 116.598C41.9148 116.818 42.0571 117.009 42.2465 117.144C42.4359 117.278 42.6628 117.35 42.8953 117.349V117.349Z" fill="url(#paint0_linear_1193_58830)"/>
<path d="M43.2316 117.794H205.083C205.264 117.794 205.443 117.749 205.604 117.665C205.765 117.58 205.903 117.457 206.006 117.306C206.11 117.156 206.176 116.983 206.199 116.801C206.221 116.619 206.2 116.435 206.137 116.263L164.45 0.756267C164.368 0.536243 164.221 0.346399 164.03 0.2115C163.839 0.0766006 163.612 0.00288285 163.379 0H1.54536C1.36371 0.00130488 1.18499 0.0462798 1.02401 0.131109C0.863024 0.215938 0.72444 0.33823 0.619686 0.48784C0.514932 0.63745 0.447043 0.810063 0.421667 0.991395C0.39629 1.17273 0.414166 1.35752 0.473774 1.5305L42.1778 117.038C42.2527 117.259 42.3947 117.451 42.5838 117.587C42.7729 117.723 42.9995 117.795 43.2316 117.794V117.794Z" fill="url(#paint1_linear_1193_58830)"/>
<path d="M205.002 117.349H200.905L160.513 6.52449C160.433 6.30748 160.29 6.1196 160.101 5.98559C159.913 5.85158 159.688 5.7777 159.457 5.77371H1.44727L0.0698663 2.00212C0.0070758 1.8308 -0.0138431 1.64697 0.00894203 1.46595C0.0317272 1.28493 0.0975405 1.11197 0.200832 0.961522C0.304123 0.811077 0.44192 0.687507 0.602735 0.60111C0.763551 0.514713 0.942728 0.46797 1.12529 0.464844H163.232C163.466 0.465209 163.695 0.537392 163.886 0.671643C164.078 0.805895 164.225 0.995776 164.305 1.21562L206.057 115.866C206.113 116.034 206.129 116.213 206.103 116.389C206.077 116.564 206.01 116.731 205.907 116.876C205.804 117.02 205.668 117.139 205.511 117.221C205.354 117.303 205.179 117.347 205.002 117.349V117.349Z" fill="url(#paint2_linear_1193_58830)"/>
<defs>
<linearGradient id="paint0_linear_1193_58830" x1="154.896" y1="-65.2082" x2="107.588" y2="48.2342" gradientUnits="userSpaceOnUse">
<stop stop-color="#2C292E"/>
<stop offset="1" stop-color="#191A1E"/>
</linearGradient>
<linearGradient id="paint1_linear_1193_58830" x1="176.006" y1="33.4728" x2="105.908" y2="57.6086" gradientUnits="userSpaceOnUse">
<stop stop-color="#2C292E" stop-opacity="0"/>
<stop offset="1"/>
</linearGradient>
<linearGradient id="paint2_linear_1193_58830" x1="136.792" y1="-72.2327" x2="110.48" y2="30.2363" gradientUnits="userSpaceOnUse">
<stop stop-color="#525257"/>
<stop offset="1" stop-color="#2F3438" stop-opacity="0"/>
</linearGradient>
</defs>
</svg>
