<svg width="207" height="118" viewBox="0 0 207 118" fill="none" xmlns="http://www.w3.org/2000/svg">
<path d="M163.233 117.349H1.14432C0.960958 117.352 0.779678 117.31 0.616212 117.227C0.452746 117.144 0.31203 117.022 0.206276 116.872C0.100523 116.723 0.0329244 116.549 0.00935068 116.368C-0.014223 116.186 0.00693849 116.001 0.0709983 115.83L41.8409 1.16166C41.9203 0.944652 42.0637 0.756771 42.2521 0.622761C42.4405 0.488752 42.6651 0.414873 42.8963 0.410889H205.003C205.185 0.410986 205.364 0.455074 205.525 0.539354C205.686 0.623634 205.824 0.745634 205.928 0.894912C206.032 1.04419 206.098 1.21631 206.12 1.39661C206.143 1.57691 206.122 1.76 206.058 1.93027L164.306 116.598C164.228 116.82 164.082 117.011 163.89 117.146C163.697 117.28 163.468 117.351 163.233 117.349Z" fill="url(#paint0_linear_1193_58826)"/>
<path d="M162.908 117.975H1.14204C0.959045 117.978 0.778126 117.935 0.614985 117.851C0.451845 117.768 0.311409 117.645 0.205866 117.494C0.100323 117.343 0.0328588 117.168 0.00933207 116.985C-0.0141947 116.801 0.00692468 116.615 0.070857 116.442L41.7576 0.757428C41.8369 0.538495 41.98 0.348948 42.168 0.213751C42.356 0.0785531 42.5802 0.00401925 42.8109 0H204.595C204.776 9.86033e-05 204.955 0.0445774 205.116 0.129604C205.277 0.214631 205.415 0.337713 205.518 0.488314C205.622 0.638915 205.687 0.812564 205.71 0.994458C205.733 1.17635 205.711 1.36107 205.648 1.53285L163.979 117.217C163.901 117.441 163.756 117.634 163.564 117.769C163.372 117.905 163.142 117.977 162.908 117.975Z" fill="url(#paint1_linear_1193_58826)"/>
<path d="M1.14412 117.349H5.22271L45.5973 6.52449C45.6778 6.30465 45.8239 6.11476 46.0158 5.98051C46.2078 5.84626 46.4363 5.77408 46.6706 5.77371H204.681L206.058 2.00212C206.121 1.8308 206.142 1.64697 206.119 1.46595C206.096 1.28493 206.03 1.11197 205.927 0.961522C205.824 0.811077 205.686 0.687507 205.525 0.60111C205.364 0.514713 205.185 0.46797 205.003 0.464844H42.8961C42.6649 0.468828 42.4403 0.542707 42.2519 0.676716C42.0635 0.810726 41.9201 0.998607 41.8407 1.21562L0.142352 115.83C0.0801755 115.996 0.0581333 116.175 0.0780225 116.351C0.0979118 116.527 0.159173 116.696 0.25681 116.844C0.354448 116.992 0.485704 117.115 0.639893 117.203C0.794083 117.291 0.966846 117.341 1.14412 117.349V117.349Z" fill="url(#paint2_linear_1193_58826)"/>
<defs>
<linearGradient id="paint0_linear_1193_58826" x1="34.6318" y1="-64.797" x2="104.709" y2="62.0533" gradientUnits="userSpaceOnUse">
<stop stop-color="#2C292E"/>
<stop offset="1" stop-color="#191A1E"/>
</linearGradient>
<linearGradient id="paint1_linear_1193_58826" x1="30.1888" y1="33.5241" x2="100.305" y2="57.6128" gradientUnits="userSpaceOnUse">
<stop stop-color="#2C292E" stop-opacity="0"/>
<stop offset="1"/>
</linearGradient>
<linearGradient id="paint2_linear_1193_58826" x1="69.3354" y1="-72.2327" x2="95.6477" y2="30.2363" gradientUnits="userSpaceOnUse">
<stop stop-color="#525257"/>
<stop offset="1" stop-color="#2F3438" stop-opacity="0"/>
</linearGradient>
</defs>
</svg>
