<svg width="411" height="80" viewBox="0 0 411 80" fill="none" xmlns="http://www.w3.org/2000/svg">
<path d="M410.159 79.9999H405.683C405.749 79.9296 405.793 79.8486 405.811 79.7632C405.829 79.6779 405.822 79.5905 405.788 79.5078L405.683 79.2065H406.064C406.187 79.2078 406.309 79.1875 406.42 79.1471C406.53 79.1067 406.628 79.0473 406.704 78.9735C406.78 78.8997 406.833 78.8134 406.859 78.7215C406.884 78.6295 406.882 78.5343 406.852 78.4431L380.155 3.66608C380.106 3.53527 380.003 3.42025 379.861 3.33863C379.718 3.25701 379.545 3.21327 379.367 3.21409H31.642C31.4642 3.21327 31.291 3.25701 31.1488 3.33863C31.0066 3.42025 30.9032 3.53527 30.8545 3.66608L4.11846 78.4431C4.08823 78.5343 4.08582 78.6295 4.11142 78.7215C4.13702 78.8134 4.18993 78.8997 4.26608 78.9735C4.34222 79.0473 4.43954 79.1067 4.55051 79.1471C4.66147 79.1875 4.78309 79.2078 4.90596 79.2065H5.2866L5.18159 79.5078C5.15032 79.5912 5.14471 79.6791 5.1652 79.7644C5.18569 79.8498 5.23174 79.9304 5.29972 79.9999H0.837159C0.710342 79.9996 0.585268 79.9773 0.471318 79.9347C0.357368 79.8921 0.257503 79.8303 0.179208 79.754C0.100913 79.6776 0.0462226 79.5887 0.0192388 79.4939C-0.00774498 79.399 -0.00632928 79.3008 0.0233945 79.2065L27.3106 0.472123C27.355 0.335891 27.4583 0.215129 27.6036 0.129438C27.7489 0.0437466 27.9278 -0.00184596 28.1113 5.7258e-05H382.885C383.07 -0.000602431 383.249 0.0452764 383.396 0.130603C383.543 0.215929 383.65 0.335953 383.699 0.472123L410.973 79.2065C411.005 79.301 411.009 79.3999 410.983 79.4956C410.957 79.5912 410.902 79.681 410.824 79.7579C410.745 79.8347 410.644 79.8966 410.528 79.9386C410.413 79.9806 410.287 80.0016 410.159 79.9999V79.9999Z" fill="url(#paint0_linear_1185_51509)"/>
<g clip-path="url(#clip0_1185_51509)">
<g filter="url(#filter0_f_1185_51509)">
<path d="M73 0L337 2.30796e-05" stroke="url(#paint1_radial_1185_51509)"/>
</g>
</g>
<defs>
<filter id="filter0_f_1185_51509" x="69" y="-4.5" width="272" height="9.00003" filterUnits="userSpaceOnUse" color-interpolation-filters="sRGB">
<feFlood flood-opacity="0" result="BackgroundImageFix"/>
<feBlend mode="normal" in="SourceGraphic" in2="BackgroundImageFix" result="shape"/>
<feGaussianBlur stdDeviation="2" result="effect1_foregroundBlur_1185_51509"/>
</filter>
<linearGradient id="paint0_linear_1185_51509" x1="205.485" y1="-17.5668" x2="205.485" y2="44.4243" gradientUnits="userSpaceOnUse">
<stop stop-color="#525257"/>
<stop offset="1" stop-color="#2F3438" stop-opacity="0"/>
</linearGradient>
<radialGradient id="paint1_radial_1185_51509" cx="0" cy="0" r="1" gradientUnits="userSpaceOnUse" gradientTransform="translate(205 0.500693) rotate(-0.296625) scale(96.5748 27064.3)">
<stop offset="0.46875" stop-color="#FF2424"/>
<stop offset="1" stop-color="#E87E31" stop-opacity="0.5"/>
</radialGradient>
<clipPath id="clip0_1185_51509">
<rect width="280" height="8" fill="white" transform="translate(65)"/>
</clipPath>
</defs>
</svg>
